<svg id="Layer_1" data-name="Layer 1" xmlns="http://www.w3.org/2000/svg" xmlns:xlink="http://www.w3.org/1999/xlink" viewBox="0 0 512 512"><defs><style>.cls-1,.cls-2,.cls-3,.cls-4,.cls-5,.cls-6{stroke-miterlimit:10;}.cls-1{fill:url(#linear-gradient);stroke:url(#linear-gradient-2);}.cls-2{fill:url(#linear-gradient-3);stroke:url(#linear-gradient-4);}.cls-3{fill:url(#linear-gradient-5);stroke:url(#linear-gradient-6);}.cls-4{fill:url(#linear-gradient-7);stroke:url(#linear-gradient-8);}.cls-5{fill:url(#linear-gradient-9);stroke:url(#linear-gradient-10);}.cls-6{fill:url(#linear-gradient-11);stroke:url(#linear-gradient-12);}.cls-7{fill:#fff;}.cls-8{fill:url(#linear-gradient-13);}.cls-9{fill:url(#linear-gradient-14);}.cls-10{fill:url(#linear-gradient-15);}.cls-11{fill:url(#linear-gradient-16);}.cls-12{fill:none;}</style><linearGradient id="linear-gradient" x1="309.79" y1="389.2" x2="460.89" y2="105.01" gradientUnits="userSpaceOnUse"><stop offset="0" stop-color="#0e7b7a"/><stop offset="1" stop-color="#34b4ab"/></linearGradient><linearGradient id="linear-gradient-2" x1="309.21" y1="389.33" x2="460.75" y2="104.33" xlink:href="#linear-gradient"/><linearGradient id="linear-gradient-3" x1="439.03" y1="229.85" x2="205.64" y2="0.5" xlink:href="#linear-gradient"/><linearGradient id="linear-gradient-4" x1="439.44" y1="230.06" x2="205.1" y2="-0.22" xlink:href="#linear-gradient"/><linearGradient id="linear-gradient-5" x1="346.01" y1="140.22" x2="24.18" y2="152.59" xlink:href="#linear-gradient"/><linearGradient id="linear-gradient-6" x1="346.41" y1="140.66" x2="23.63" y2="153.06" xlink:href="#linear-gradient"/><linearGradient id="linear-gradient-7" x1="194.73" y1="119.66" x2="51.56" y2="409.34" xlink:href="#linear-gradient"/><linearGradient id="linear-gradient-8" x1="195.31" y1="119.52" x2="51.72" y2="410.07" xlink:href="#linear-gradient"/><linearGradient id="linear-gradient-9" x1="76.15" y1="275.39" x2="301.14" y2="513.31" xlink:href="#linear-gradient"/><linearGradient id="linear-gradient-10" x1="76.09" y1="274.84" x2="301.95" y2="513.67" xlink:href="#linear-gradient"/><linearGradient id="linear-gradient-11" x1="169.3" y1="390.48" x2="494.83" y2="353.39" xlink:href="#linear-gradient"/><linearGradient id="linear-gradient-12" x1="168.84" y1="390.09" x2="495.44" y2="352.88" xlink:href="#linear-gradient"/><linearGradient id="linear-gradient-13" x1="-737.95" y1="279.44" x2="-737.95" y2="456.08" gradientTransform="translate(477.17 -485.26) rotate(-45)" xlink:href="#linear-gradient"/><linearGradient id="linear-gradient-14" x1="-623.13" y1="279.44" x2="-623.13" y2="456.08" gradientTransform="translate(477.17 -485.26) rotate(-45)" xlink:href="#linear-gradient"/><linearGradient id="linear-gradient-15" x1="-680.54" y1="279.44" x2="-680.54" y2="456.08" gradientTransform="translate(477.17 -485.26) rotate(-45)" xlink:href="#linear-gradient"/><linearGradient id="linear-gradient-16" x1="-680.54" y1="244.11" x2="-680.54" y2="491.41" gradientTransform="translate(477.17 -485.26) rotate(-45)" xlink:href="#linear-gradient"/></defs><title>Nexion_LOGO_Final</title><path class="cls-1" d="M484.65,145.6v117a331.07,331.07,0,0,1-60.15,59.77,327,327,0,0,1-78.66,44.45c-1.57.62-3.16,1.23-4.73,1.82l-2.23.83c-1.69.62-3.41,1.23-5.12,1.83l-.07,0c-1.84.66-3.68,1.27-5.53,1.87q-4.29,1.44-8.64,2.71c-1.15.35-2.31.7-3.48,1-.55.18-1.09.32-1.64.48-1.79.49-3.57,1-5.35,1.46l-.23.06c-1.84.47-3.68.95-5.53,1.39-.43.11-.85.22-1.29.3-1.75.45-3.5.85-5.27,1.22a4.56,4.56,0,0,1-.53.13,131.49,131.49,0,0,0,82.48-76.67c.23-.56.44-1.15.67-1.71s.44-1.15.66-1.72q3.06-8.07,5.7-16.3c.88-2.76,1.73-5.49,2.54-8.27a330.59,330.59,0,0,0,9.4-41.95,327.7,327.7,0,0,0,.92-94.44A331.88,331.88,0,0,0,377,60.42L386,65.49l72.09,41c.23.13,2.5,1.36,3.35,1.84l.32.16a43.66,43.66,0,0,1,21.5,27.47c.05.19.1.4.16.61.12.48.23,1,.31,1.45s.18.8.25,1.2.14.82.21,1.22.07.6.11.89.07.47.09.72.09.64.12.95c.07.89.13,1.75.14,2.64Z"/><path class="cls-2" d="M396.77,235.22c-.28,1.85-.6,3.71-.92,5.56-.26,1.59-.56,3.18-.87,4.77-.14.76-.28,1.54-.44,2.32-.1.56-.23,1.13-.33,1.69-.27,1.27-.51,2.54-.8,3.8-.09.46-.19.92-.3,1.36-.32,1.47-.63,2.93-1,4.4-.12.58-.26,1.16-.42,1.75-.37,1.57-.76,3.16-1.15,4.73-.16.57-.3,1.15-.46,1.73-.44,1.73-.92,3.46-1.39,5.21,0,.13-.07.27-.11.41q-.79,2.83-1.64,5.67a.34.34,0,0,0,0,.12c-.6,2-1.23,4-1.87,6A132.41,132.41,0,0,0,362.2,177.21L362,177c-1.07-1.47-2.2-2.92-3.32-4.3-.07-.08-.14-.17-.23-.26a330.53,330.53,0,0,0-49.35-50.35,327.35,327.35,0,0,0-79.62-48.31c-3.44-1.46-6.92-2.88-10.42-4.22A331,331,0,0,0,155,52L233.35,8.31a7.46,7.46,0,0,1,1-.53l2.53-1.5a47.44,47.44,0,0,1,4.85-2.52A42.15,42.15,0,0,1,263.26.21a11.76,11.76,0,0,1,1.22.12,46.35,46.35,0,0,1,12.4,3.43c1,.44,39.43,22.18,80.62,45.57l18.3,10.39a331.31,331.31,0,0,1,21.91,81.33A326.9,326.9,0,0,1,396.77,235.22Z"/><path class="cls-3" d="M346.76,159.84a132.52,132.52,0,0,0-107.7-35l-.34.05-.14,0c-1.94.25-3.9.56-5.85.92l-.26,0-.11,0a330.83,330.83,0,0,0-66.54,18.46A327.23,327.23,0,0,0,87,188.92q-3.56,2.7-7,5.51c-.92.72-1.82,1.47-2.72,2.23-.44.35-.88.7-1.31,1.07-.72.6-1.44,1.2-2.15,1.82q-7.12,6.07-13.92,12.54c-.83.78-1.64,1.58-2.46,2.37s-1.46,1.43-2.19,2.16c-1.09,1.09-2.19,2.19-3.28,3.3l-3.23,3.34c-.2.21-.39.42-.59.62l-2.56,2.73c-.46.48-.9,1-1.34,1.45-2,2.19-4,4.42-6,6.68-1,1.15-2,2.31-3,3.48s-1.87,2.23-2.79,3.36c-.81,1-1.63,2-2.42,3l-2.23,2.8c0-1.68,0-3.36,0-5,.23-48.6.44-93.09.44-93.29v-.37a43.31,43.31,0,0,1,13.5-32l.47-.45,1.1-1c.3-.26.62-.55.93-.81s.66-.51,1-.76.47-.35.72-.51l.58-.44c.25-.2.52-.38.78-.57.72-.48,1.47-1,2.21-1.4h0l83.13-46.36,18.95-10.58,2-1.13a330.37,330.37,0,0,1,75.4,21.91,325.65,325.65,0,0,1,79.37,48.12.32.32,0,0,0,.1.08A327.25,327.25,0,0,1,346.76,159.84Z"/><path class="cls-4" d="M114.35,276.66a327.56,327.56,0,0,0-.94,94.42c.46,3.42,1,6.85,1.55,10.26.27,1.55.55,3.11.83,4.66,0,.18.06.36.09.55.3,1.57.6,3.15.92,4.72s.69,3.35,1,5,.74,3.34,1.13,5q1.14,5,2.48,10c.44,1.65.88,3.29,1.34,4.93a.07.07,0,0,1,0,.06c.44,1.55.88,3.1,1.36,4.64q3.7,12.51,8.41,24.68c.49,1.32,1,2.65,1.53,4,.11.24.2.51.3.76l-5.93-3.38L53.7,404.46l-3.32-1.82-.33-.17a43.48,43.48,0,0,1-21.38-27.31c-.05-.2-.1-.41-.16-.62-.1-.48-.21-.94-.32-1.43s-.15-.8-.24-1.2-.14-.82-.2-1.22-.07-.58-.1-.88-.07-.48-.11-.71-.07-.64-.11-1c-.07-.88-.12-1.73-.14-2.61v0s.22-47,.44-97.17c0-6.48.08-13.06.09-19.57q1.62-2.07,3.29-4.14c1-1.25,2-2.49,3.07-3.74.18-.23.37-.48.59-.71,1-1.22,2-2.44,3.09-3.64s2.29-2.67,3.46-4c2.51-2.83,5-5.6,7.65-8.32q1.56-1.65,3.12-3.25,7.38-7.56,15.2-14.59c1.29-1.19,2.61-2.34,3.94-3.5s2.65-2.28,4-3.41,2.47-2.07,3.71-3.07c2.81-2.34,5.67-4.6,8.57-6.81a326.32,326.32,0,0,1,78.68-44.44c1.57-.62,3.14-1.22,4.73-1.82l2.23-.83c1.69-.62,3.41-1.24,5.12-1.84h.07c.94-.34,1.89-.66,2.83-1s1.8-.6,2.7-.9a1.72,1.72,0,0,0,.21-.07c.71-.24,1.41-.47,2.14-.69l.74-.23,1.09-.35c.82-.26,1.65-.53,2.5-.78l2.5-.76c1.54-.46,3.08-.91,4.63-1.34.43-.12.85-.25,1.29-.35l4-1.1c1.4-.37,2.79-.72,4.19-1.06s2.79-.69,4.2-1,2.79-.66,4.21-1l.19,0a131.39,131.39,0,0,0-82.42,76.67c-.23.56-.46,1.13-.67,1.69s-.45,1.15-.66,1.72A332.65,332.65,0,0,0,114.35,276.66Z"/><path class="cls-5" d="M357.39,460.11c-42,23.93-79.91,45.59-79.91,45.59a47.41,47.41,0,0,1-4.91,2.53,42.73,42.73,0,0,1-21.69,3.56,11.81,11.81,0,0,1-1.24-.12h0a46.61,46.61,0,0,1-12.47-3.44h0a63,63,0,0,1-8-4.16l-76-43.17L135.65,451h0c-1.08-2.68-2.14-5.38-3.14-8.09-.52-1.37-1-2.73-1.52-4.11s-.9-2.51-1.34-3.78-.82-2.35-1.21-3.53c-.33-1-.65-2-1-2.95-.69-2.12-1.36-4.24-2-6.38q-2.76-9.09-5-18.32c-.22-.94-.45-1.87-.67-2.81-.67-2.83-1.29-5.69-1.87-8.53-.21-1-.41-2.09-.62-3.13-.12-.65-.24-1.29-.37-1.94-.21-1.17-.42-2.33-.63-3.52-.25-1.43-.5-2.86-.73-4.29s-.46-2.88-.67-4.31-.42-2.88-.62-4.31a326,326,0,0,1,.92-94.19c.32-2,.65-4,1-6a3.21,3.21,0,0,1,.07-.43s0-.07,0-.1c.61-3.45,1.27-6.87,2-10.3.18-.83.36-1.68.53-2.51a4.23,4.23,0,0,1,.13-.51c.35-1.68.74-3.36,1.14-5q.68-2.85,1.42-5.72c.07-.35.16-.71.26-1,.44-1.73.9-3.46,1.4-5.2.07-.3.14-.58.23-.86.39-1.38.77-2.76,1.18-4.14.11-.37.21-.76.34-1.14s.17-.59.26-.89c.51-1.73,1.06-3.48,1.61-5.21,0-.1.07-.19.1-.3a131.9,131.9,0,0,0,22.9,107.4l.19.23c1.06,1.45,2.19,2.9,3.32,4.3.06.07.13.17.2.24,1.84,2.32,3.69,4.61,5.6,6.89s3.8,4.49,5.74,6.7c0,0,0,0,0,0q7.27,8.28,15.13,16.06,9.42,9.36,19.51,17.88l3.39,2.83a326.85,326.85,0,0,0,79.61,48.31c1.28.55,2.55,1.09,3.84,1.61s2.58,1,3.87,1.55l2.7,1.08,1.16.44c1.29.49,2.6,1,3.91,1.45,2.54.93,5.09,1.84,7.65,2.7,1.29.44,2.58.87,3.88,1.29l.85.28c1.15.37,2.28.73,3.43,1.08.25.09.51.18.78.25,2.4.74,4.82,1.46,7.24,2.14l.09,0q4,1.11,8,2.14c2.7.69,5.42,1.36,8.14,2l4.08.92c1.36.3,2.74.58,4.1.84s2.48.5,3.71.73c1.5.3,3,.58,4.52.84C355.42,459.77,356.41,460,357.39,460.11Z"/><path class="cls-6" d="M484.55,366.36a42.51,42.51,0,0,1-7.41,20.56,12,12,0,0,1-.7,1h0a46.05,46.05,0,0,1-9,9.17h0c-.76.57-43.39,25-88.06,50.47-6.42,3.68-12.88,7.37-19.28,11l-1.46.83h0c-1.62-.27-3.23-.55-4.86-.85s-3.25-.6-4.86-.92-3.25-.63-4.85-1-3.24-.69-4.84-1.06c-3-.69-6.06-1.41-9.08-2.19-3.41-.86-6.82-1.8-10.21-2.79-1.54-.44-3.08-.9-4.61-1.38s-3.15-1-4.72-1.48l-.46-.14c-2.63-.87-5.26-1.75-7.88-2.67l-1.48-.53c-1.38-.49-2.78-1-4.15-1.52-3.08-1.13-6.13-2.33-9.17-3.57-1.52-.61-3-1.25-4.54-1.89a326.29,326.29,0,0,1-79.4-48.19c-1.74-1.41-3.45-2.86-5.14-4.32-1.28-1.08-2.53-2.18-3.78-3.29l-.18-.16c-.83-.74-1.66-1.48-2.49-2.24q-1.59-1.41-3.13-2.86l-.72-.66a1.75,1.75,0,0,1-.2-.19c-1.36-1.26-2.72-2.55-4-3.83l-.37-.38c-1.15-1.09-2.26-2.2-3.38-3.32-.83-.81-1.64-1.64-2.45-2.47q-1.86-1.87-3.66-3.78c-1.34-1.41-2.67-2.83-4-4.26-.83-.9-1.66-1.8-2.47-2.72s-1.73-1.92-2.58-2.89a132.52,132.52,0,0,0,108,35.27l.3,0,.16,0c2-.25,3.94-.56,5.86-.92a1.71,1.71,0,0,0,.25,0l.11,0a331.42,331.42,0,0,0,66.54-18.46A327.61,327.61,0,0,0,425,323.1a332.24,332.24,0,0,0,59.62-59.05V356.8a8.7,8.7,0,0,1,0,1.15l.09,2.93A52.49,52.49,0,0,1,484.55,366.36Z"/><circle class="cls-7" cx="256" cy="256" r="132.49"/><path class="cls-8" d="M218.52,293.48a53,53,0,0,1-13.71-51.19l-27.14-27.14A88.35,88.35,0,0,0,296.85,334.33l-27.14-27.14A53,53,0,0,1,218.52,293.48Z"/><path class="cls-9" d="M318.45,193.55a88.36,88.36,0,0,0-103.31-15.87l27.15,27.14a53,53,0,0,1,64.89,64.89l27.14,27.15A88.36,88.36,0,0,0,318.45,193.55Z"/><path class="cls-10" d="M218.52,218.53a52.81,52.81,0,0,1,6.78-5.72l-25.2-25.19q-3.39,2.77-6.56,5.93t-5.93,6.56l25.2,25.19A53.33,53.33,0,0,1,218.52,218.53Z"/><path class="cls-11" d="M218.52,218.53a52.81,52.81,0,0,1,6.78-5.72l-25.2-25.19q-3.39,2.77-6.56,5.93t-5.93,6.56l25.2,25.19A53.33,53.33,0,0,1,218.52,218.53Z"/><path class="cls-11" d="M218.52,218.53a52.81,52.81,0,0,1,6.78-5.72l-25.2-25.19q-3.39,2.77-6.56,5.93t-5.93,6.56l25.2,25.19A53.33,53.33,0,0,1,218.52,218.53Z"/><path class="cls-11" d="M218.52,218.53a52.81,52.81,0,0,1,6.78-5.72l-25.2-25.19q-3.39,2.77-6.56,5.93t-5.93,6.56l25.2,25.19A53.33,53.33,0,0,1,218.52,218.53Z"/><path class="cls-10" d="M293.47,293.48a53.33,53.33,0,0,1-6.77,5.71l25.19,25.2q3.39-2.77,6.56-5.93t5.93-6.56l-25.19-25.2A52.81,52.81,0,0,1,293.47,293.48Z"/><path class="cls-11" d="M293.47,293.48a53.33,53.33,0,0,1-6.77,5.71l25.19,25.2q3.39-2.77,6.56-5.93t5.93-6.56l-25.19-25.2A52.81,52.81,0,0,1,293.47,293.48Z"/><path class="cls-11" d="M293.47,293.48a53.33,53.33,0,0,1-6.77,5.71l25.19,25.2q3.39-2.77,6.56-5.93t5.93-6.56l-25.19-25.2A52.81,52.81,0,0,1,293.47,293.48Z"/><rect class="cls-12" width="512" height="512"/></svg>