<svg id="svg" version="1.1" xmlns="http://www.w3.org/2000/svg" xmlns:xlink="http://www.w3.org/1999/xlink" width="400" height="400" viewBox="0, 0, 400,400"><g id="svgg"><path id="path0" d="M209.700 9.876 C 210.085 9.976,210.715 9.976,211.100 9.876 C 211.485 9.775,211.170 9.693,210.400 9.693 C 209.630 9.693,209.315 9.775,209.700 9.876 M204.593 55.200 C 204.593 80.170,204.641 90.385,204.700 77.900 C 204.759 65.415,204.759 44.985,204.700 32.500 C 204.641 20.015,204.593 30.230,204.593 55.200 M216.100 10.276 C 216.485 10.376,217.115 10.376,217.500 10.276 C 217.885 10.175,217.570 10.093,216.800 10.093 C 216.030 10.093,215.715 10.175,216.100 10.276 M310.388 55.900 L 307.800 58.600 310.500 56.012 C 313.008 53.607,313.383 53.200,313.088 53.200 C 313.027 53.200,311.812 54.415,310.388 55.900 M303.588 62.300 L 301.000 65.000 303.700 62.412 C 306.208 60.007,306.583 59.600,306.288 59.600 C 306.227 59.600,305.012 60.815,303.588 62.300 M297.787 67.700 L 295.400 70.200 297.900 67.813 C 299.275 66.499,300.400 65.374,300.400 65.313 C 300.400 65.017,300.005 65.378,297.787 67.700 M290.589 74.500 L 287.800 77.400 290.700 74.611 C 292.295 73.077,293.600 71.772,293.600 71.711 C 293.600 71.417,293.180 71.806,290.589 74.500 M283.988 80.700 L 281.400 83.400 284.100 80.812 C 286.608 78.407,286.983 78.000,286.688 78.000 C 286.627 78.000,285.412 79.215,283.988 80.700 M277.188 87.100 L 274.600 89.800 277.300 87.212 C 279.808 84.807,280.183 84.400,279.888 84.400 C 279.827 84.400,278.612 85.615,277.188 87.100 M350.962 90.900 L 350.200 91.800 351.075 91.061 C 351.568 90.644,352.162 90.453,352.437 90.623 C 352.747 90.815,352.820 90.756,352.638 90.462 C 352.220 89.785,351.816 89.891,350.962 90.900 M272.571 101.200 C 272.571 106.150,272.628 108.175,272.699 105.700 C 272.769 103.225,272.769 99.175,272.699 96.700 C 272.628 94.225,272.571 96.250,272.571 101.200 M353.949 93.000 C 354.165 93.440,354.634 94.160,354.993 94.600 L 355.644 95.400 355.251 94.600 C 355.035 94.160,354.566 93.440,354.207 93.000 L 353.556 92.200 353.949 93.000 M344.791 96.700 L 341.400 100.200 344.988 96.800 C 346.961 94.930,348.656 93.355,348.755 93.300 C 348.853 93.245,348.764 93.200,348.558 93.200 C 348.351 93.200,346.656 94.775,344.791 96.700 M337.391 103.700 L 334.200 107.000 337.500 103.809 C 339.315 102.055,340.800 100.570,340.800 100.509 C 340.800 100.218,340.354 100.635,337.391 103.700 M205.700 101.076 C 206.085 101.176,206.715 101.176,207.100 101.076 C 207.485 100.975,207.170 100.893,206.400 100.893 C 205.630 100.893,205.315 100.975,205.700 101.076 M361.200 105.200 C 361.649 106.080,362.106 106.800,362.216 106.800 C 362.326 106.800,362.049 106.080,361.600 105.200 C 361.151 104.320,360.694 103.600,360.584 103.600 C 360.474 103.600,360.751 104.320,361.200 105.200 M328.400 112.200 C 326.761 113.850,325.510 115.200,325.620 115.200 C 325.730 115.200,327.161 113.850,328.800 112.200 C 330.439 110.550,331.690 109.200,331.580 109.200 C 331.470 109.200,330.039 110.550,328.400 112.200 M270.185 116.900 L 268.200 119.000 270.300 117.015 C 272.251 115.171,272.583 114.800,272.285 114.800 C 272.222 114.800,271.277 115.745,270.185 116.900 M366.812 116.049 C 366.793 116.452,368.420 120.000,368.624 120.000 C 368.727 120.000,368.548 119.372,368.227 118.604 C 367.555 116.995,366.830 115.686,366.812 116.049 M319.792 120.500 L 316.200 124.200 319.900 120.608 C 323.336 117.272,323.782 116.800,323.492 116.800 C 323.432 116.800,321.767 118.465,319.792 120.500 M263.781 122.900 L 262.200 124.600 263.900 123.019 C 265.481 121.548,265.784 121.200,265.481 121.200 C 265.416 121.200,264.651 121.965,263.781 122.900 M370.026 123.600 C 370.027 123.930,370.299 124.650,370.631 125.200 L 371.233 126.200 370.968 125.200 C 370.584 123.748,370.024 122.797,370.026 123.600 M312.788 127.100 L 310.200 129.800 312.900 127.212 C 314.385 125.788,315.600 124.573,315.600 124.512 C 315.600 124.217,315.193 124.592,312.788 127.100 M372.229 129.200 C 372.376 129.750,372.664 130.470,372.867 130.800 C 373.125 131.217,373.157 131.095,372.971 130.400 C 372.824 129.850,372.536 129.130,372.333 128.800 C 372.075 128.383,372.043 128.505,372.229 129.200 M291.525 130.299 C 294.893 130.366,300.293 130.366,303.525 130.299 C 306.756 130.232,304.000 130.177,297.400 130.177 C 290.800 130.177,288.156 130.232,291.525 130.299 M282.386 133.100 L 280.200 135.400 282.500 133.214 C 284.637 131.182,284.983 130.800,284.686 130.800 C 284.624 130.800,283.589 131.835,282.386 133.100 M373.212 132.000 C 373.212 132.330,373.387 132.870,373.600 133.200 C 373.945 133.733,373.988 133.733,373.988 133.200 C 373.988 132.870,373.813 132.330,373.600 132.000 C 373.255 131.467,373.212 131.467,373.212 132.000 M374.150 134.700 C 375.515 139.396,376.121 141.212,376.271 141.062 C 376.479 140.854,374.397 134.000,374.126 134.000 C 374.027 134.000,374.038 134.315,374.150 134.700 M277.283 137.715 C 275.425 139.608,275.285 140.041,276.264 140.851 C 276.872 141.353,276.881 141.324,276.373 140.508 C 275.857 139.679,275.943 139.488,277.592 137.808 C 278.568 136.814,279.277 136.000,279.167 136.000 C 279.057 136.000,278.209 136.772,277.283 137.715 M376.635 142.800 C 376.753 143.570,377.004 144.650,377.191 145.200 C 377.521 146.168,378.515 150.201,379.001 152.547 C 379.132 153.178,379.338 153.595,379.459 153.474 C 379.580 153.353,379.302 151.667,378.840 149.727 C 377.838 145.517,376.320 140.747,376.635 142.800 M282.881 152.191 C 283.359 153.176,283.819 153.914,283.903 153.830 C 284.084 153.649,282.468 150.400,282.197 150.400 C 282.094 150.400,282.402 151.206,282.881 152.191 M379.881 156.400 C 380.000 157.830,380.255 159.171,380.449 159.380 C 380.948 159.920,380.824 158.182,380.194 155.800 L 379.664 153.800 379.881 156.400 M285.667 158.420 C 285.901 159.092,286.167 159.567,286.257 159.476 C 286.456 159.278,285.701 157.200,285.431 157.200 C 285.327 157.200,285.433 157.749,285.667 158.420 M380.977 162.751 C 381.132 164.374,381.425 166.141,381.629 166.677 C 381.833 167.213,382.000 168.710,382.000 170.002 C 382.000 171.295,382.180 172.464,382.400 172.600 C 382.983 172.960,382.900 171.569,381.981 165.573 C 381.076 159.668,380.540 158.160,380.977 162.751 M287.429 162.800 C 287.576 163.350,287.864 164.070,288.067 164.400 C 288.325 164.817,288.357 164.695,288.171 164.000 C 288.024 163.450,287.736 162.730,287.533 162.400 C 287.275 161.983,287.243 162.105,287.429 162.800 M380.878 167.492 C 380.835 167.763,380.350 168.098,379.800 168.236 C 379.250 168.374,378.800 168.647,378.800 168.843 C 378.800 169.040,378.607 169.200,378.371 169.200 C 378.136 169.200,377.673 169.470,377.343 169.800 C 377.013 170.130,376.306 170.400,375.771 170.400 C 375.175 170.400,374.800 170.631,374.800 171.000 C 374.800 171.330,374.480 171.600,374.088 171.600 C 373.697 171.600,373.122 171.953,372.811 172.385 C 372.499 172.817,371.740 173.281,371.122 173.417 C 370.505 173.553,370.000 173.817,370.000 174.005 C 370.000 174.193,369.603 174.472,369.119 174.626 C 368.634 174.780,367.991 175.152,367.690 175.453 C 367.389 175.754,366.718 176.000,366.198 176.000 C 365.605 176.000,365.159 176.298,365.000 176.800 C 364.860 177.240,364.501 177.600,364.202 177.600 C 363.902 177.600,363.411 177.846,363.110 178.147 C 362.809 178.448,362.121 178.834,361.581 179.004 C 361.042 179.175,360.330 179.623,360.000 180.000 C 359.670 180.377,358.958 180.825,358.419 180.996 C 357.879 181.166,357.191 181.552,356.890 181.853 C 356.589 182.154,356.098 182.400,355.798 182.400 C 355.499 182.400,355.146 182.741,355.013 183.158 C 354.866 183.622,354.250 184.014,353.425 184.169 C 352.684 184.308,351.976 184.687,351.851 185.011 C 351.727 185.335,351.169 185.600,350.613 185.600 C 350.056 185.600,349.600 185.768,349.600 185.973 C 349.600 186.178,349.195 186.474,348.700 186.630 C 348.205 186.787,347.530 187.221,347.200 187.595 C 346.870 187.969,346.330 188.379,346.000 188.506 C 345.670 188.633,353.725 188.751,363.900 188.768 L 382.400 188.800 382.400 184.200 C 382.400 181.400,382.557 179.600,382.800 179.600 C 383.043 179.600,383.200 181.392,383.200 184.176 C 383.200 187.206,383.356 188.849,383.662 189.038 C 384.154 189.342,383.827 179.457,383.211 175.400 L 382.907 173.400 382.853 176.100 C 382.777 179.966,382.000 179.511,382.000 175.600 C 382.000 173.835,381.829 172.400,381.618 172.400 C 381.408 172.400,381.174 171.185,381.097 169.700 C 381.020 168.215,380.921 167.222,380.878 167.492 M289.668 170.000 C 289.688 171.039,290.318 172.746,290.332 171.800 C 290.338 171.360,290.189 170.640,290.000 170.200 C 289.789 169.710,289.661 169.632,289.668 170.000 M290.880 175.200 C 290.880 175.750,291.024 176.650,291.200 177.200 L 291.520 178.200 291.520 177.200 C 291.520 176.650,291.376 175.750,291.200 175.200 L 290.880 174.200 290.880 175.200 M291.865 181.343 C 291.996 182.632,292.215 185.062,292.351 186.743 L 292.600 189.800 338.400 189.803 L 384.200 189.805 338.559 189.701 L 292.918 189.597 292.652 185.498 C 292.506 183.244,292.215 180.860,292.006 180.200 C 291.716 179.281,291.683 179.548,291.865 181.343 M394.093 188.400 C 394.093 189.170,394.175 189.485,394.276 189.100 C 394.376 188.715,394.376 188.085,394.276 187.700 C 394.175 187.315,394.093 187.630,394.093 188.400 M394.109 198.000 C 394.109 198.990,394.187 199.395,394.282 198.900 C 394.378 198.405,394.378 197.595,394.282 197.100 C 394.187 196.605,394.109 197.010,394.109 198.000 M292.625 198.360 C 292.502 198.558,292.220 200.493,291.997 202.660 C 287.380 247.563,251.346 282.521,206.400 285.701 L 205.000 285.800 204.898 331.900 L 204.797 378.000 206.118 378.000 C 222.422 378.000,247.573 372.892,266.200 365.798 C 311.049 348.718,350.102 311.524,368.677 268.200 C 376.323 250.367,380.821 233.893,382.984 215.800 C 383.693 209.865,384.429 198.770,384.144 198.309 C 383.871 197.868,292.898 197.918,292.625 198.360 M6.893 206.000 C 6.893 206.770,6.975 207.085,7.076 206.700 C 7.176 206.315,7.176 205.685,7.076 205.300 C 6.975 204.915,6.893 205.230,6.893 206.000 M64.400 331.800 C 65.595 333.010,66.663 334.000,66.773 334.000 C 66.883 334.000,65.995 333.010,64.800 331.800 C 63.605 330.590,62.537 329.600,62.427 329.600 C 62.317 329.600,63.205 330.590,64.400 331.800 M335.387 332.500 L 333.000 335.000 335.500 332.613 C 336.875 331.299,338.000 330.174,338.000 330.113 C 338.000 329.817,337.605 330.178,335.387 332.500 M198.512 387.495 C 199.564 387.577,201.184 387.576,202.112 387.492 C 203.040 387.408,202.180 387.341,200.200 387.342 C 198.220 387.343,197.460 387.412,198.512 387.495 " stroke="none" fill="#e2d63d" fill-rule="evenodd"></path><path id="path1" d="M189.600 9.862 C 140.822 13.176,100.547 31.924,66.000 67.400 C 47.287 86.616,28.419 119.623,22.783 143.000 C 22.624 143.660,22.127 145.550,21.680 147.200 C 18.373 159.385,14.706 186.517,15.909 189.902 C 16.050 190.301,25.424 190.383,61.743 190.302 L 107.400 190.200 107.695 187.400 C 109.669 168.678,113.973 155.826,122.666 142.694 C 138.500 118.773,162.935 104.121,191.900 101.179 L 196.800 100.682 196.800 55.141 L 196.800 9.600 194.100 9.670 C 192.615 9.708,190.590 9.795,189.600 9.862 " stroke="none" fill="#fc5263" fill-rule="evenodd"></path><path id="path2" d="M117.427 17.159 C 116.891 17.369,116.800 17.553,117.130 17.757 C 117.392 17.918,117.888 17.770,118.232 17.426 C 118.903 16.755,118.662 16.675,117.427 17.159 M284.600 18.000 C 284.464 18.220,284.529 18.400,284.744 18.400 C 284.959 18.400,285.464 18.525,285.867 18.678 C 286.554 18.938,286.557 18.912,285.929 18.278 C 285.152 17.494,284.940 17.450,284.600 18.000 M112.021 19.774 C 111.759 20.090,110.979 20.473,110.288 20.625 C 109.597 20.776,108.574 21.200,108.016 21.566 C 106.346 22.661,105.467 23.158,104.149 23.753 C 102.548 24.477,102.115 25.144,103.407 24.896 C 103.948 24.793,104.292 24.549,104.172 24.354 C 104.051 24.159,104.142 24.000,104.373 24.000 C 105.315 24.000,108.747 22.237,108.520 21.870 C 108.372 21.631,108.627 21.566,109.162 21.706 C 109.729 21.854,110.127 21.734,110.266 21.371 C 110.386 21.060,110.655 20.910,110.863 21.039 C 111.072 21.168,111.583 20.880,112.000 20.400 C 112.417 19.920,112.935 19.636,113.151 19.770 C 113.368 19.904,113.658 19.830,113.796 19.607 C 114.187 18.974,112.557 19.128,112.021 19.774 M287.400 19.472 C 287.840 19.593,288.349 19.897,288.530 20.146 C 288.749 20.446,288.806 20.396,288.699 20.000 C 288.610 19.670,288.101 19.367,287.569 19.326 C 286.805 19.268,286.769 19.299,287.400 19.472 M289.600 20.744 C 289.600 20.981,289.870 21.071,290.200 20.945 C 290.530 20.818,290.800 20.914,290.800 21.157 C 290.800 21.401,291.004 21.600,291.253 21.600 C 291.502 21.600,292.024 21.966,292.412 22.414 C 292.800 22.861,293.271 23.187,293.459 23.138 C 293.961 23.006,297.482 24.776,298.029 25.434 C 298.287 25.746,298.652 26.000,298.841 26.000 C 299.030 26.000,300.133 26.630,301.292 27.399 C 302.452 28.169,303.850 29.095,304.400 29.456 C 310.097 33.205,313.200 35.397,313.200 35.670 C 313.200 35.852,313.433 36.000,313.719 36.000 C 314.004 36.000,314.649 36.315,315.151 36.700 C 317.591 38.569,319.514 40.134,320.641 41.169 C 322.367 42.754,323.444 43.039,323.973 42.050 C 324.338 41.369,324.244 41.229,323.275 41.016 C 322.659 40.881,321.901 40.417,321.589 39.985 C 321.278 39.553,320.793 39.200,320.512 39.200 C 320.230 39.200,320.000 38.974,320.000 38.698 C 320.000 38.421,319.415 37.941,318.700 37.629 C 317.985 37.318,316.661 36.464,315.759 35.732 C 314.856 34.999,313.911 34.400,313.659 34.400 C 313.406 34.400,313.200 34.130,313.200 33.800 C 313.200 33.470,312.992 33.200,312.738 33.200 C 312.484 33.200,311.719 32.791,311.038 32.292 C 310.357 31.792,309.260 31.123,308.600 30.804 C 307.940 30.485,306.770 29.769,306.000 29.212 C 304.052 27.804,302.913 27.200,302.205 27.200 C 301.872 27.200,301.600 26.930,301.600 26.600 C 301.600 26.225,301.221 26.000,300.587 26.000 C 300.031 26.000,299.471 25.730,299.345 25.400 C 299.218 25.070,298.774 24.800,298.357 24.800 C 297.941 24.800,297.600 24.620,297.600 24.400 C 297.600 24.180,297.403 24.000,297.163 24.000 C 296.923 24.000,296.269 23.640,295.709 23.200 C 295.150 22.760,294.333 22.400,293.893 22.400 C 293.453 22.400,292.792 22.052,292.423 21.627 C 291.644 20.728,289.600 20.089,289.600 20.744 M101.000 25.600 C 100.864 25.820,100.403 26.000,99.976 26.000 C 99.549 26.000,99.200 26.270,99.200 26.600 C 99.200 26.948,98.838 27.200,98.338 27.200 C 97.864 27.200,96.886 27.650,96.164 28.200 C 95.443 28.750,94.683 29.200,94.476 29.200 C 94.268 29.200,93.888 29.453,93.631 29.763 C 93.374 30.073,92.586 30.626,91.882 30.992 C 89.585 32.186,88.696 32.722,88.446 33.064 C 88.069 33.579,84.882 36.000,84.581 36.000 C 84.435 36.000,83.781 36.450,83.127 37.000 C 82.473 37.550,81.682 38.000,81.369 38.000 C 81.056 38.000,80.800 38.270,80.800 38.600 C 80.800 38.930,80.561 39.200,80.270 39.200 C 79.978 39.200,79.317 39.650,78.800 40.200 C 78.283 40.750,77.727 41.200,77.564 41.200 C 77.231 41.200,75.977 42.207,73.206 44.700 C 72.167 45.635,71.106 46.400,70.847 46.400 C 70.128 46.400,47.600 69.044,47.600 69.766 C 47.600 70.115,47.364 70.400,47.075 70.400 C 46.786 70.400,46.302 71.030,46.000 71.800 C 45.698 72.570,45.209 73.200,44.913 73.200 C 44.617 73.200,44.258 73.515,44.115 73.900 C 43.972 74.285,43.528 74.891,43.128 75.247 C 42.727 75.603,42.400 76.098,42.400 76.347 C 42.400 76.596,42.151 76.800,41.847 76.800 C 41.542 76.800,41.179 77.115,41.040 77.500 C 40.628 78.640,39.905 79.716,38.000 82.021 C 35.937 84.519,35.418 85.290,34.587 87.100 C 34.258 87.815,33.842 88.400,33.662 88.400 C 33.482 88.400,33.083 88.895,32.776 89.500 C 32.468 90.105,31.808 91.157,31.308 91.838 C 30.809 92.519,30.400 93.213,30.400 93.380 C 30.400 93.548,29.860 94.367,29.200 95.200 C 28.540 96.033,28.000 96.918,28.000 97.166 C 28.000 97.724,26.183 100.640,25.616 100.990 C 25.387 101.131,25.200 101.575,25.200 101.975 C 25.200 102.375,24.930 102.926,24.600 103.200 C 24.270 103.474,24.000 104.017,24.000 104.406 C 24.000 104.796,23.753 105.209,23.451 105.325 C 23.148 105.441,22.785 106.156,22.643 106.913 C 22.501 107.671,22.028 108.613,21.592 109.007 C 21.156 109.401,20.800 109.967,20.800 110.263 C 20.800 110.560,20.440 111.475,20.000 112.296 C 19.560 113.116,19.200 113.992,19.200 114.240 C 19.200 114.489,18.865 115.121,18.455 115.646 C 18.045 116.171,17.581 117.050,17.423 117.600 C 17.265 118.150,16.797 119.349,16.383 120.264 C 15.968 121.180,15.422 122.755,15.167 123.764 C 14.913 124.774,14.546 125.600,14.353 125.600 C 14.159 125.600,14.000 125.920,14.000 126.311 C 14.000 126.702,13.746 127.385,13.435 127.828 C 13.125 128.272,12.573 129.659,12.209 130.910 C 11.845 132.161,11.379 133.289,11.174 133.416 C 10.968 133.543,10.800 134.076,10.800 134.600 C 10.800 135.124,10.620 135.664,10.400 135.800 C 10.180 135.936,9.999 136.532,9.998 137.124 C 9.996 137.716,9.726 138.716,9.398 139.346 C 9.069 139.976,8.799 140.966,8.798 141.546 C 8.796 142.126,8.526 143.116,8.198 143.746 C 7.869 144.376,7.600 145.220,7.600 145.622 C 7.600 146.024,7.420 146.464,7.200 146.600 C 6.980 146.736,6.800 147.517,6.800 148.335 C 6.800 149.153,6.555 150.177,6.255 150.611 C 5.956 151.045,5.608 152.300,5.483 153.400 C 5.358 154.500,4.958 156.660,4.595 158.200 C 4.232 159.740,3.695 162.620,3.403 164.600 C 3.111 166.580,2.598 169.820,2.264 171.800 C -0.084 185.725,-0.084 213.271,2.266 227.400 C 2.595 229.380,2.873 231.270,2.884 231.600 C 2.894 231.930,3.443 234.900,4.103 238.200 C 4.763 241.500,5.383 244.920,5.481 245.800 C 5.578 246.680,5.915 247.967,6.229 248.660 C 6.543 249.354,6.800 250.443,6.800 251.080 C 6.800 251.718,6.989 252.429,7.221 252.661 C 7.453 252.893,7.690 253.514,7.748 254.041 C 7.807 254.568,8.067 255.393,8.327 255.874 C 8.587 256.354,8.800 257.099,8.800 257.528 C 8.800 257.957,9.069 258.824,9.398 259.454 C 9.726 260.084,9.996 261.097,9.998 261.705 C 9.999 262.313,10.180 263.168,10.400 263.605 C 11.318 265.429,11.503 265.910,12.168 268.200 C 12.552 269.520,13.032 270.870,13.235 271.200 C 13.439 271.530,13.707 272.070,13.832 272.400 C 13.956 272.730,14.196 273.270,14.365 273.600 C 14.533 273.930,14.994 275.233,15.389 276.495 C 15.784 277.758,16.353 278.995,16.653 279.244 C 16.954 279.494,17.200 280.192,17.200 280.795 C 17.200 281.398,17.515 282.321,17.900 282.846 C 18.285 283.371,19.020 284.700,19.533 285.800 C 20.046 286.900,20.991 288.835,21.633 290.099 C 22.275 291.364,22.800 292.759,22.800 293.199 C 22.800 293.644,23.066 294.000,23.400 294.000 C 23.730 294.000,24.000 294.338,24.000 294.751 C 24.000 295.164,24.270 295.726,24.600 296.000 C 24.930 296.274,25.200 296.684,25.200 296.911 C 25.200 297.139,25.616 297.881,26.125 298.562 C 26.633 299.243,27.293 300.430,27.590 301.200 C 27.888 301.970,28.372 302.884,28.666 303.231 C 28.960 303.579,29.200 304.074,29.200 304.331 C 29.200 304.589,29.470 304.800,29.800 304.800 C 30.130 304.800,30.400 305.072,30.400 305.405 C 30.400 306.088,31.173 307.577,31.847 308.192 C 32.093 308.416,32.542 309.185,32.845 309.900 C 33.148 310.615,33.600 311.200,33.851 311.200 C 34.102 311.200,34.412 311.515,34.542 311.900 C 34.824 312.741,35.431 313.707,36.900 315.656 C 37.505 316.459,38.000 317.240,38.000 317.393 C 38.000 317.547,38.989 318.781,40.198 320.136 C 41.407 321.491,42.397 322.794,42.398 323.030 C 42.399 323.267,42.850 323.883,43.400 324.400 C 43.950 324.917,44.400 325.578,44.400 325.870 C 44.400 326.161,44.670 326.400,45.000 326.400 C 45.330 326.400,45.600 326.627,45.600 326.905 C 45.600 327.183,46.050 327.748,46.600 328.161 C 47.150 328.574,47.600 329.119,47.600 329.371 C 47.600 329.624,48.500 330.717,49.600 331.800 C 50.700 332.883,51.600 334.002,51.600 334.285 C 51.600 334.568,51.874 334.800,52.210 334.800 C 52.545 334.800,52.981 335.205,53.177 335.700 C 53.604 336.774,63.495 346.588,64.500 346.934 C 64.885 347.066,65.200 347.451,65.200 347.787 C 65.200 348.124,65.432 348.400,65.715 348.400 C 65.998 348.400,67.117 349.300,68.200 350.400 C 69.283 351.500,70.376 352.400,70.629 352.400 C 70.881 352.400,71.426 352.850,71.839 353.400 C 72.252 353.950,72.817 354.400,73.095 354.400 C 73.373 354.400,73.600 354.670,73.600 355.000 C 73.600 355.330,73.839 355.600,74.130 355.600 C 74.422 355.600,75.083 356.050,75.600 356.600 C 76.117 357.150,76.733 357.601,76.970 357.602 C 77.206 357.603,78.509 358.593,79.864 359.802 C 81.219 361.011,82.453 362.000,82.607 362.000 C 82.760 362.000,83.541 362.495,84.344 363.100 C 86.293 364.569,87.259 365.176,88.100 365.458 C 88.485 365.588,88.800 365.898,88.800 366.149 C 88.800 366.400,89.385 366.852,90.100 367.155 C 90.815 367.458,91.584 367.907,91.808 368.153 C 92.423 368.827,93.912 369.600,94.595 369.600 C 94.928 369.600,95.200 369.870,95.200 370.200 C 95.200 370.530,95.411 370.800,95.669 370.800 C 95.926 370.800,96.421 371.040,96.769 371.334 C 97.116 371.628,98.030 372.112,98.800 372.410 C 99.570 372.707,100.757 373.367,101.438 373.875 C 102.119 374.384,102.861 374.800,103.089 374.800 C 103.316 374.800,103.726 375.070,104.000 375.400 C 104.274 375.730,104.836 376.000,105.249 376.000 C 105.662 376.000,106.000 376.270,106.000 376.600 C 106.000 376.934,106.356 377.200,106.801 377.200 C 107.241 377.200,108.636 377.725,109.901 378.367 C 111.165 379.009,113.100 379.954,114.200 380.467 C 115.300 380.980,116.629 381.715,117.154 382.100 C 117.679 382.485,118.602 382.800,119.205 382.800 C 119.808 382.800,120.506 383.046,120.756 383.347 C 121.005 383.647,122.242 384.216,123.505 384.611 C 125.674 385.290,126.605 385.673,128.000 386.465 C 128.822 386.931,129.061 387.016,131.800 387.823 C 134.246 388.542,134.718 388.723,136.295 389.538 C 136.787 389.792,137.687 390.001,138.295 390.002 C 138.903 390.004,139.916 390.274,140.546 390.602 C 141.176 390.931,142.043 391.200,142.472 391.200 C 142.901 391.200,143.646 391.413,144.126 391.673 C 144.607 391.933,145.432 392.193,145.959 392.252 C 146.486 392.310,147.107 392.547,147.339 392.779 C 147.571 393.011,148.282 393.200,148.920 393.200 C 149.557 393.200,150.646 393.457,151.340 393.771 C 152.033 394.085,153.320 394.422,154.200 394.519 C 155.080 394.617,158.500 395.237,161.800 395.897 C 165.100 396.557,168.070 397.106,168.400 397.116 C 168.730 397.127,170.620 397.405,172.600 397.734 C 186.729 400.084,214.275 400.084,228.200 397.736 C 230.180 397.402,233.420 396.889,235.400 396.597 C 237.380 396.305,240.260 395.768,241.800 395.405 C 243.340 395.042,245.500 394.642,246.600 394.517 C 247.700 394.392,248.955 394.044,249.389 393.745 C 249.823 393.445,250.847 393.200,251.665 393.200 C 252.483 393.200,253.264 393.020,253.400 392.800 C 253.536 392.580,253.976 392.400,254.378 392.400 C 254.780 392.400,255.624 392.131,256.254 391.802 C 256.884 391.474,257.874 391.204,258.454 391.202 C 259.034 391.201,260.024 390.931,260.654 390.602 C 261.284 390.274,262.284 390.004,262.876 390.002 C 263.468 390.001,264.064 389.820,264.200 389.600 C 264.336 389.380,264.876 389.200,265.400 389.200 C 265.924 389.200,266.457 389.032,266.584 388.826 C 266.711 388.621,267.839 388.155,269.090 387.791 C 270.341 387.427,271.728 386.875,272.172 386.565 C 272.615 386.254,273.298 386.000,273.689 386.000 C 274.080 386.000,274.400 385.841,274.400 385.647 C 274.400 385.454,275.226 385.087,276.236 384.833 C 277.245 384.578,278.820 384.032,279.736 383.617 C 280.651 383.203,281.850 382.735,282.400 382.577 C 282.950 382.419,283.829 381.955,284.354 381.545 C 284.879 381.135,285.511 380.800,285.760 380.800 C 286.008 380.800,286.884 380.440,287.704 380.000 C 288.525 379.560,289.440 379.200,289.737 379.200 C 290.033 379.200,290.599 378.844,290.993 378.408 C 291.387 377.972,292.329 377.499,293.087 377.357 C 293.844 377.215,294.559 376.852,294.675 376.549 C 294.791 376.247,295.204 376.000,295.594 376.000 C 295.983 376.000,296.526 375.730,296.800 375.400 C 297.074 375.070,297.625 374.800,298.025 374.800 C 298.425 374.800,298.869 374.613,299.010 374.384 C 299.360 373.817,302.276 372.000,302.834 372.000 C 303.082 372.000,303.967 371.460,304.800 370.800 C 305.633 370.140,306.452 369.600,306.620 369.600 C 306.787 369.600,307.481 369.191,308.162 368.692 C 308.843 368.192,309.895 367.532,310.500 367.224 C 311.105 366.917,311.600 366.518,311.600 366.338 C 311.600 366.158,312.185 365.742,312.900 365.413 C 314.710 364.582,315.481 364.063,317.979 362.000 C 320.284 360.095,321.360 359.372,322.500 358.960 C 322.885 358.821,323.200 358.458,323.200 358.153 C 323.200 357.849,323.404 357.600,323.653 357.600 C 323.902 357.600,324.397 357.273,324.753 356.872 C 325.109 356.472,325.715 356.028,326.100 355.885 C 326.485 355.742,326.800 355.383,326.800 355.087 C 326.800 354.791,327.430 354.302,328.200 354.000 C 328.970 353.698,329.600 353.214,329.600 352.925 C 329.600 352.636,329.885 352.400,330.234 352.400 C 330.956 352.400,353.600 329.872,353.600 329.153 C 353.600 328.894,354.365 327.833,355.300 326.794 C 357.793 324.023,358.800 322.769,358.800 322.436 C 358.800 322.273,359.250 321.717,359.800 321.200 C 360.350 320.683,360.800 320.022,360.800 319.730 C 360.800 319.439,361.070 319.200,361.400 319.200 C 361.730 319.200,362.000 318.944,362.000 318.631 C 362.000 318.318,362.450 317.527,363.000 316.873 C 363.550 316.219,364.000 315.565,364.000 315.419 C 364.000 315.118,366.421 311.931,366.936 311.554 C 367.278 311.304,367.814 310.415,369.008 308.118 C 369.374 307.414,369.927 306.626,370.237 306.369 C 370.547 306.112,370.800 305.676,370.800 305.400 C 370.800 305.124,371.053 304.688,371.363 304.431 C 371.673 304.174,372.218 303.386,372.574 302.682 C 372.931 301.977,373.382 301.130,373.578 300.800 C 373.773 300.470,374.233 299.570,374.600 298.800 C 374.966 298.030,375.694 296.680,376.217 295.800 C 376.740 294.920,377.441 293.660,377.776 293.000 C 378.110 292.340,378.539 291.530,378.729 291.200 C 378.919 290.870,379.451 289.790,379.912 288.800 C 380.373 287.810,381.661 285.086,382.775 282.746 C 383.889 280.406,384.800 278.146,384.800 277.722 C 384.800 277.299,385.064 276.604,385.387 276.176 C 385.710 275.749,385.980 275.121,385.987 274.780 C 385.994 274.439,386.210 273.950,386.467 273.693 C 386.978 273.182,387.984 270.523,387.994 269.660 C 388.000 269.149,388.845 267.002,389.626 265.517 C 389.823 265.142,390.101 264.107,390.244 263.217 C 390.386 262.328,390.659 261.600,390.851 261.600 C 391.043 261.600,391.200 261.138,391.200 260.574 C 391.200 260.009,391.408 259.158,391.663 258.683 C 392.098 257.869,392.258 257.337,393.244 253.416 C 393.463 252.544,393.789 251.644,393.968 251.416 C 394.147 251.187,394.411 250.076,394.554 248.946 C 394.698 247.816,395.156 245.566,395.571 243.946 C 395.987 242.326,396.451 240.055,396.601 238.900 C 396.752 237.745,397.074 236.800,397.318 236.800 C 397.630 236.800,397.624 236.664,397.299 236.339 C 397.017 236.057,396.969 235.629,397.177 235.239 C 400.553 228.893,400.931 183.080,397.744 166.672 C 397.409 164.952,397.237 163.279,397.361 162.956 C 397.486 162.633,397.409 162.060,397.192 161.684 C 396.975 161.308,396.545 159.830,396.236 158.400 C 395.927 156.970,395.388 154.540,395.037 153.000 C 394.687 151.460,394.394 149.750,394.387 149.200 C 394.380 148.650,394.110 147.851,393.787 147.424 C 393.464 146.996,393.200 145.972,393.200 145.147 C 393.200 144.322,393.032 143.543,392.826 143.416 C 392.621 143.289,392.167 142.154,391.818 140.893 C 391.470 139.632,391.004 138.281,390.783 137.891 C 390.563 137.501,390.271 136.372,390.135 135.380 C 389.999 134.389,389.733 133.482,389.544 133.365 C 389.355 133.248,389.200 132.825,389.200 132.425 C 389.200 132.025,388.930 131.474,388.600 131.200 C 388.270 130.926,388.000 130.296,388.000 129.800 C 388.000 128.721,386.977 126.157,386.406 125.804 C 386.183 125.666,386.000 125.083,386.000 124.508 C 386.000 123.933,385.767 123.179,385.483 122.831 C 385.198 122.484,384.726 121.480,384.433 120.600 C 383.966 119.197,383.056 117.155,379.964 110.574 C 379.544 109.679,379.200 108.734,379.200 108.474 C 379.200 108.213,379.044 108.000,378.853 108.000 C 378.663 108.000,378.120 107.145,377.648 106.100 C 376.548 103.667,375.139 101.147,374.500 100.471 C 374.225 100.181,374.000 99.596,374.000 99.171 C 374.000 98.747,373.861 98.400,373.691 98.400 C 373.521 98.400,373.033 97.725,372.606 96.900 C 372.179 96.075,371.367 94.770,370.802 94.000 C 370.238 93.230,369.515 92.060,369.196 91.400 C 368.877 90.740,368.208 89.643,367.708 88.962 C 367.209 88.281,366.800 87.516,366.800 87.262 C 366.800 87.008,366.530 86.800,366.200 86.800 C 365.870 86.800,365.600 86.601,365.600 86.358 C 365.600 86.114,365.060 85.233,364.400 84.400 C 363.740 83.567,363.200 82.722,363.200 82.522 C 363.200 81.464,362.221 81.229,361.323 82.073 C 360.192 83.134,360.171 83.613,361.200 84.800 C 361.640 85.307,362.000 85.950,362.000 86.228 C 362.000 86.506,362.163 86.793,362.363 86.867 C 362.843 87.043,369.828 98.631,371.605 102.200 C 372.372 103.740,373.135 105.060,373.300 105.133 C 373.465 105.207,373.600 105.425,373.600 105.619 C 373.600 105.812,374.598 108.092,375.818 110.685 C 377.038 113.278,378.199 115.760,378.396 116.200 C 379.857 119.446,380.400 120.829,380.400 121.298 C 380.400 121.596,380.550 122.011,380.734 122.220 C 380.918 122.429,381.385 123.500,381.772 124.600 C 382.159 125.700,382.728 127.167,383.038 127.860 C 383.347 128.554,383.600 129.321,383.600 129.566 C 383.600 129.811,383.758 130.323,383.950 130.705 C 384.143 131.087,384.611 132.480,384.990 133.800 C 385.369 135.120,385.829 136.493,386.013 136.851 C 386.196 137.209,386.471 138.199,386.625 139.051 C 386.779 139.903,387.037 140.780,387.200 141.000 C 387.363 141.220,387.620 142.120,387.772 143.000 C 387.924 143.880,388.211 145.140,388.409 145.800 C 389.043 147.910,389.937 152.043,391.393 159.600 C 395.053 178.587,395.142 206.919,391.603 226.000 C 389.761 235.929,388.440 241.690,386.558 248.000 C 368.136 309.771,321.655 357.804,260.800 377.957 C 256.377 379.422,247.666 381.853,243.600 382.756 C 214.803 389.157,185.997 389.157,157.200 382.756 C 140.882 379.129,116.886 369.872,106.019 363.012 C 105.137 362.455,104.329 362.000,104.222 362.000 C 102.708 362.000,85.497 350.137,77.237 343.400 C 54.761 325.068,33.957 297.612,22.834 271.600 C 22.316 270.390,21.656 268.860,21.366 268.200 C 16.710 257.606,11.493 239.626,9.410 227.000 C 9.047 224.800,8.568 221.942,8.345 220.648 C 6.591 210.480,6.013 187.871,7.213 176.400 C 8.011 168.777,8.953 161.754,9.601 158.600 C 9.827 157.500,10.364 154.890,10.794 152.800 C 11.758 148.119,12.516 144.930,13.410 141.800 C 13.788 140.480,14.189 138.950,14.302 138.400 C 14.415 137.850,14.655 137.211,14.836 136.980 C 15.017 136.749,15.286 135.804,15.434 134.880 C 15.581 133.956,15.859 133.200,16.051 133.200 C 16.243 133.200,16.399 132.885,16.399 132.500 C 16.397 131.643,18.775 124.747,19.255 124.220 C 19.445 124.011,19.600 123.596,19.600 123.298 C 19.600 123.000,19.970 121.911,20.422 120.878 C 20.874 119.845,21.396 118.640,21.581 118.200 C 21.767 117.760,22.207 116.743,22.559 115.940 C 22.912 115.136,23.200 114.281,23.200 114.040 C 23.200 113.798,23.380 113.600,23.600 113.600 C 23.820 113.600,24.000 113.380,24.000 113.111 C 24.000 112.596,29.543 101.144,29.959 100.800 C 30.092 100.690,30.636 99.700,31.168 98.600 C 31.700 97.500,32.240 96.510,32.368 96.400 C 32.496 96.290,32.946 95.570,33.370 94.800 C 33.793 94.030,34.243 93.310,34.370 93.200 C 34.496 93.090,35.050 92.133,35.600 91.074 C 36.150 90.014,36.893 88.830,37.251 88.443 C 37.609 88.055,38.026 87.347,38.178 86.869 C 38.330 86.391,38.622 86.000,38.827 86.000 C 39.032 86.000,39.200 85.818,39.200 85.596 C 39.200 85.374,40.222 83.799,41.471 82.096 C 46.999 74.561,48.219 72.950,48.985 72.174 C 49.433 71.720,49.980 71.066,50.200 70.721 C 50.957 69.535,55.205 64.437,55.702 64.119 C 55.976 63.943,57.065 62.769,58.123 61.509 C 60.209 59.025,64.844 54.324,67.646 51.853 C 68.611 51.002,70.499 49.292,71.841 48.053 C 73.184 46.814,75.060 45.170,76.010 44.400 C 76.961 43.630,78.404 42.415,79.218 41.700 C 80.031 40.985,80.900 40.400,81.148 40.400 C 81.397 40.400,81.604 40.265,81.609 40.100 C 81.614 39.935,82.510 39.170,83.600 38.400 C 84.690 37.630,85.586 36.865,85.591 36.700 C 85.596 36.535,85.842 36.400,86.138 36.400 C 86.434 36.400,87.012 36.029,87.422 35.576 C 87.832 35.123,89.030 34.268,90.083 33.676 C 91.137 33.084,91.999 32.465,92.000 32.300 C 92.000 32.135,92.206 32.000,92.459 32.000 C 92.711 32.000,93.656 31.410,94.559 30.690 C 96.583 29.074,99.600 27.111,99.600 27.410 C 99.600 27.532,99.994 27.264,100.475 26.816 C 100.957 26.367,101.497 26.000,101.675 26.000 C 101.854 26.000,102.000 25.820,102.000 25.600 C 102.000 25.380,101.831 25.200,101.624 25.200 C 101.417 25.200,101.136 25.380,101.000 25.600 M344.400 28.927 C 341.522 31.726,338.789 34.304,317.398 54.400 C 312.129 59.350,304.569 66.460,300.598 70.200 C 291.702 78.578,282.684 87.046,279.100 90.388 L 276.400 92.905 276.400 104.476 L 276.400 116.047 274.700 117.776 C 273.765 118.727,270.210 122.088,266.800 125.244 C 263.390 128.399,259.070 132.440,257.200 134.222 C 255.330 136.005,250.920 140.146,247.400 143.425 C 238.913 151.331,236.553 153.536,231.800 158.000 C 225.251 164.150,222.520 166.708,216.000 172.799 C 197.923 189.685,196.843 190.765,196.341 192.440 C 195.024 196.834,198.298 200.707,203.001 200.317 C 205.384 200.119,205.843 199.812,210.800 195.096 C 217.734 188.500,220.010 186.358,229.200 177.785 C 239.055 168.590,243.779 164.171,263.395 145.800 C 269.972 139.640,277.344 132.756,279.777 130.502 L 284.200 126.405 296.159 126.402 L 308.117 126.400 310.159 124.517 C 312.483 122.373,324.735 110.763,331.598 104.200 C 334.129 101.779,339.710 96.470,344.000 92.402 C 348.290 88.333,354.051 82.843,356.801 80.202 C 367.684 69.753,377.064 60.861,378.300 59.822 C 379.015 59.221,379.600 58.565,379.600 58.364 C 379.600 58.151,373.039 58.000,363.800 58.000 L 348.000 58.000 348.000 42.000 C 348.000 33.200,347.865 26.002,347.700 26.005 C 347.535 26.007,346.050 27.322,344.400 28.927 M196.000 159.856 C 176.668 162.396,162.520 182.987,166.992 202.075 C 175.259 237.365,223.915 238.887,234.911 204.200 C 236.359 199.632,236.226 189.099,234.660 184.321 C 232.885 178.906,233.410 178.867,227.000 184.888 C 213.716 197.366,210.521 200.345,209.200 201.483 C 202.205 207.511,192.593 203.293,192.604 194.200 C 192.609 189.667,193.034 189.134,207.100 176.024 C 213.755 169.820,219.200 164.670,219.200 164.578 C 219.200 164.172,214.299 161.996,211.200 161.026 C 207.798 159.961,199.854 159.350,196.000 159.856 " stroke="none" fill="#2b5352" fill-rule="evenodd"></path><path id="path3" d="M342.975 30.100 L 341.800 31.400 343.100 30.225 C 343.815 29.579,344.400 28.994,344.400 28.925 C 344.400 28.616,344.070 28.888,342.975 30.100 M335.785 36.900 L 333.800 39.000 335.900 37.015 C 337.851 35.171,338.183 34.800,337.885 34.800 C 337.822 34.800,336.877 35.745,335.785 36.900 M329.381 42.900 L 327.800 44.600 329.500 43.019 C 331.081 41.548,331.384 41.200,331.081 41.200 C 331.016 41.200,330.251 41.965,329.381 42.900 M322.575 49.300 L 321.400 50.600 322.700 49.425 C 323.415 48.779,324.000 48.194,324.000 48.125 C 324.000 47.816,323.670 48.088,322.575 49.300 M315.600 55.800 C 314.628 56.790,313.923 57.600,314.033 57.600 C 314.143 57.600,315.028 56.790,316.000 55.800 C 316.972 54.810,317.677 54.000,317.567 54.000 C 317.457 54.000,316.572 54.810,315.600 55.800 M309.781 61.300 L 308.200 63.000 309.900 61.419 C 311.481 59.948,311.784 59.600,311.481 59.600 C 311.416 59.600,310.651 60.365,309.781 61.300 M374.581 63.300 L 373.000 65.000 374.700 63.419 C 375.635 62.549,376.400 61.784,376.400 61.719 C 376.400 61.416,376.052 61.719,374.581 63.300 M302.975 67.700 L 301.800 69.000 303.100 67.825 C 303.815 67.179,304.400 66.594,304.400 66.525 C 304.400 66.216,304.070 66.488,302.975 67.700 M365.385 72.100 L 363.400 74.200 365.500 72.215 C 367.451 70.371,367.783 70.000,367.485 70.000 C 367.422 70.000,366.477 70.945,365.385 72.100 M296.181 74.100 L 294.600 75.800 296.300 74.219 C 297.881 72.748,298.184 72.400,297.881 72.400 C 297.816 72.400,297.051 73.165,296.181 74.100 M357.781 79.300 L 356.200 81.000 357.900 79.419 C 359.481 77.948,359.784 77.600,359.481 77.600 C 359.416 77.600,358.651 78.365,357.781 79.300 M289.381 80.500 L 287.800 82.200 289.500 80.619 C 291.081 79.148,291.384 78.800,291.081 78.800 C 291.016 78.800,290.251 79.565,289.381 80.500 M349.387 87.300 L 347.000 89.800 349.500 87.413 C 350.875 86.099,352.000 84.974,352.000 84.913 C 352.000 84.617,351.605 84.978,349.387 87.300 M282.378 87.100 L 281.000 88.600 282.500 87.222 C 283.896 85.938,284.184 85.600,283.878 85.600 C 283.812 85.600,283.137 86.275,282.378 87.100 M276.656 92.338 C 276.058 92.999,275.999 94.298,276.100 104.638 L 276.213 116.200 276.306 104.631 C 276.388 94.513,276.483 92.971,277.062 92.331 C 277.426 91.929,277.634 91.600,277.524 91.600 C 277.414 91.600,277.023 91.932,276.656 92.338 M340.581 95.700 L 339.000 97.400 340.700 95.819 C 342.281 94.348,342.584 94.000,342.281 94.000 C 342.216 94.000,341.451 94.765,340.581 95.700 M332.581 103.300 L 331.000 105.000 332.700 103.419 C 333.635 102.549,334.400 101.784,334.400 101.719 C 334.400 101.416,334.052 101.719,332.581 103.300 M324.185 111.300 L 322.200 113.400 324.300 111.415 C 326.251 109.571,326.583 109.200,326.285 109.200 C 326.222 109.200,325.277 110.145,324.185 111.300 M274.181 118.100 L 272.600 119.800 274.300 118.219 C 275.881 116.748,276.184 116.400,275.881 116.400 C 275.816 116.400,275.051 117.165,274.181 118.100 M315.986 119.100 L 313.800 121.400 316.100 119.214 C 317.365 118.011,318.400 116.976,318.400 116.914 C 318.400 116.617,318.018 116.963,315.986 119.100 M267.375 124.500 L 266.200 125.800 267.500 124.625 C 268.215 123.979,268.800 123.394,268.800 123.325 C 268.800 123.016,268.470 123.288,267.375 124.500 M309.375 125.300 L 308.200 126.600 309.500 125.425 C 310.215 124.779,310.800 124.194,310.800 124.125 C 310.800 123.816,310.470 124.088,309.375 125.300 M283.861 126.700 C 283.759 126.865,287.303 126.954,291.738 126.898 C 306.779 126.707,308.237 126.570,296.124 126.485 C 289.482 126.438,283.964 126.535,283.861 126.700 M261.775 129.700 L 260.600 131.000 261.900 129.825 C 262.615 129.179,263.200 128.594,263.200 128.525 C 263.200 128.216,262.870 128.488,261.775 129.700 M279.375 130.900 L 278.200 132.200 279.500 131.025 C 280.215 130.379,280.800 129.794,280.800 129.725 C 280.800 129.416,280.470 129.688,279.375 130.900 M255.578 135.500 L 254.200 137.000 255.700 135.622 C 257.096 134.338,257.384 134.000,257.078 134.000 C 257.012 134.000,256.337 134.675,255.578 135.500 M273.775 136.100 L 272.600 137.400 273.900 136.225 C 274.615 135.579,275.200 134.994,275.200 134.925 C 275.200 134.616,274.870 134.888,273.775 136.100 M249.381 141.300 L 247.800 143.000 249.500 141.419 C 251.081 139.948,251.384 139.600,251.081 139.600 C 251.016 139.600,250.251 140.365,249.381 141.300 M267.178 142.300 L 265.800 143.800 267.300 142.422 C 268.696 141.138,268.984 140.800,268.678 140.800 C 268.612 140.800,267.937 141.475,267.178 142.300 M260.985 148.100 L 259.000 150.200 261.100 148.215 C 263.051 146.371,263.383 146.000,263.085 146.000 C 263.022 146.000,262.077 146.945,260.985 148.100 M254.581 154.100 L 253.000 155.800 254.700 154.219 C 256.281 152.748,256.584 152.400,256.281 152.400 C 256.216 152.400,255.451 153.165,254.581 154.100 M230.575 158.900 L 229.400 160.200 230.700 159.025 C 231.415 158.379,232.000 157.794,232.000 157.725 C 232.000 157.416,231.670 157.688,230.575 158.900 M248.175 160.100 L 247.000 161.400 248.300 160.225 C 249.015 159.579,249.600 158.994,249.600 158.925 C 249.600 158.616,249.270 158.888,248.175 160.100 M200.100 159.487 C 200.705 159.578,201.695 159.578,202.300 159.487 C 202.905 159.395,202.410 159.320,201.200 159.320 C 199.990 159.320,199.495 159.395,200.100 159.487 M224.181 164.900 L 222.600 166.600 224.300 165.019 C 225.881 163.548,226.184 163.200,225.881 163.200 C 225.816 163.200,225.051 163.965,224.181 164.900 M217.578 166.300 L 216.200 167.800 217.700 166.422 C 219.096 165.138,219.384 164.800,219.078 164.800 C 219.012 164.800,218.337 165.475,217.578 166.300 M217.775 170.900 L 216.600 172.200 217.900 171.025 C 218.615 170.379,219.200 169.794,219.200 169.725 C 219.200 169.416,218.870 169.688,217.775 170.900 M211.385 172.100 L 209.400 174.200 211.500 172.215 C 213.451 170.371,213.783 170.000,213.485 170.000 C 213.422 170.000,212.477 170.945,211.385 172.100 M235.978 171.500 L 234.600 173.000 236.100 171.622 C 237.496 170.338,237.784 170.000,237.478 170.000 C 237.412 170.000,236.737 170.675,235.978 171.500 M212.175 176.100 L 211.000 177.400 212.300 176.225 C 213.015 175.579,213.600 174.994,213.600 174.925 C 213.600 174.616,213.270 174.888,212.175 176.100 M205.586 177.500 L 203.400 179.800 205.700 177.614 C 206.965 176.411,208.000 175.376,208.000 175.314 C 208.000 175.017,207.618 175.363,205.586 177.500 M229.785 177.300 L 227.800 179.400 229.900 177.415 C 231.851 175.571,232.183 175.200,231.885 175.200 C 231.822 175.200,230.877 176.145,229.785 177.300 M199.785 182.900 L 197.800 185.000 199.900 183.015 C 201.055 181.923,202.000 180.978,202.000 180.915 C 202.000 180.617,201.629 180.949,199.785 182.900 M205.200 182.600 C 204.228 183.590,203.523 184.400,203.633 184.400 C 203.743 184.400,204.628 183.590,205.600 182.600 C 206.572 181.610,207.277 180.800,207.167 180.800 C 207.057 180.800,206.172 181.610,205.200 182.600 M223.785 182.900 L 221.800 185.000 223.900 183.015 C 225.851 181.171,226.183 180.800,225.885 180.800 C 225.822 180.800,224.877 181.745,223.785 182.900 M198.987 188.500 L 196.600 191.000 199.100 188.613 C 201.422 186.395,201.783 186.000,201.487 186.000 C 201.426 186.000,200.301 187.125,198.987 188.500 M236.101 192.200 C 236.105 193.080,236.187 193.393,236.283 192.895 C 236.379 192.398,236.375 191.678,236.275 191.295 C 236.175 190.913,236.096 191.320,236.101 192.200 M166.093 192.400 C 166.093 193.170,166.175 193.485,166.276 193.100 C 166.376 192.715,166.376 192.085,166.276 191.700 C 166.175 191.315,166.093 191.630,166.093 192.400 M166.101 196.600 C 166.105 197.480,166.187 197.793,166.283 197.295 C 166.379 196.798,166.375 196.078,166.275 195.695 C 166.175 195.313,166.096 195.720,166.101 196.600 M236.101 197.000 C 236.105 197.880,236.187 198.193,236.283 197.695 C 236.379 197.198,236.375 196.478,236.275 196.095 C 236.175 195.713,236.096 196.120,236.101 197.000 M16.126 204.098 C 19.587 288.527,85.738 362.148,170.200 375.572 C 173.060 376.026,175.940 376.496,176.600 376.615 C 178.439 376.947,191.904 377.983,194.502 377.992 L 196.803 378.000 196.702 331.900 L 196.600 285.800 194.400 285.705 C 151.854 283.871,114.387 249.490,108.600 206.974 C 108.243 204.348,107.827 201.300,107.675 200.200 L 107.400 198.200 61.638 198.098 L 15.876 197.997 16.126 204.098 M200.300 229.882 C 200.795 229.978,201.605 229.978,202.100 229.882 C 202.595 229.787,202.190 229.709,201.200 229.709 C 200.210 229.709,199.805 229.787,200.300 229.882 " stroke="none" fill="#30b4fc" fill-rule="evenodd"></path><path id="path4" d="M204.800 55.094 L 204.800 100.684 209.100 101.179 C 228.797 103.450,247.583 111.445,260.339 122.988 C 262.119 124.599,261.664 124.827,267.365 119.457 L 272.400 114.714 272.400 103.783 C 272.400 97.771,272.569 92.407,272.776 91.862 C 273.096 91.022,281.260 83.205,310.787 55.466 C 316.325 50.263,316.264 50.876,311.600 47.306 C 295.801 35.211,277.046 25.239,258.800 19.232 C 250.462 16.486,250.843 16.599,245.400 15.249 C 232.583 12.069,222.880 10.603,209.100 9.766 L 204.800 9.504 204.800 55.094 M349.982 92.044 C 349.002 92.948,346.670 95.156,344.800 96.949 C 342.930 98.743,337.894 103.538,333.608 107.605 C 329.322 111.672,323.832 116.896,321.408 119.214 C 308.133 131.907,311.407 130.396,297.126 130.418 L 285.400 130.435 280.600 134.999 C 275.963 139.407,275.820 139.593,276.378 140.481 C 280.935 147.732,283.267 151.996,285.628 157.400 C 289.170 165.505,292.118 177.382,292.669 185.765 L 292.921 189.600 338.540 189.600 C 374.022 189.600,384.053 189.493,383.680 189.120 C 383.363 188.803,383.200 187.102,383.200 184.120 C 383.200 181.373,383.043 179.600,382.800 179.600 C 382.557 179.600,382.400 181.400,382.400 184.200 L 382.400 188.800 363.900 188.768 C 353.725 188.751,345.670 188.633,346.000 188.506 C 346.330 188.379,346.870 187.969,347.200 187.595 C 347.530 187.221,348.205 186.787,348.700 186.630 C 349.195 186.474,349.600 186.178,349.600 185.973 C 349.600 185.768,350.056 185.600,350.613 185.600 C 351.169 185.600,351.727 185.335,351.851 185.011 C 351.976 184.687,352.684 184.308,353.425 184.169 C 354.250 184.014,354.866 183.622,355.013 183.158 C 355.146 182.741,355.499 182.400,355.798 182.400 C 356.098 182.400,356.589 182.154,356.890 181.853 C 357.191 181.552,357.879 181.166,358.419 180.996 C 358.958 180.825,359.670 180.377,360.000 180.000 C 360.330 179.623,361.042 179.175,361.581 179.004 C 362.121 178.834,362.809 178.448,363.110 178.147 C 363.411 177.846,363.902 177.600,364.202 177.600 C 364.501 177.600,364.860 177.240,365.000 176.800 C 365.159 176.298,365.605 176.000,366.198 176.000 C 366.718 176.000,367.389 175.754,367.690 175.453 C 367.991 175.152,368.634 174.780,369.119 174.626 C 369.603 174.472,370.000 174.193,370.000 174.005 C 370.000 173.817,370.505 173.553,371.122 173.417 C 371.740 173.281,372.499 172.817,372.811 172.385 C 373.122 171.953,373.697 171.600,374.088 171.600 C 374.480 171.600,374.800 171.330,374.800 171.000 C 374.800 170.631,375.175 170.400,375.771 170.400 C 376.306 170.400,377.013 170.130,377.343 169.800 C 377.673 169.470,378.136 169.200,378.371 169.200 C 378.607 169.200,378.800 169.020,378.800 168.800 C 378.800 168.580,379.057 168.400,379.371 168.400 C 379.686 168.400,380.226 168.117,380.571 167.771 C 381.143 167.200,381.200 167.382,381.200 169.771 C 381.200 171.257,381.374 172.400,381.600 172.400 C 381.833 172.400,382.000 173.733,382.000 175.600 C 382.000 177.467,382.167 178.800,382.400 178.800 C 382.901 178.800,382.938 173.106,382.441 172.580 C 382.243 172.371,381.976 170.940,381.847 169.400 C 381.576 166.159,380.657 160.077,380.305 159.200 C 380.173 158.870,379.951 157.610,379.813 156.400 C 379.675 155.190,379.401 153.660,379.204 153.000 C 379.007 152.340,378.547 150.540,378.181 149.000 C 377.816 147.460,377.362 145.660,377.172 145.000 C 374.569 135.923,372.495 129.619,370.938 126.050 C 370.422 124.868,370.000 123.755,370.000 123.578 C 370.000 121.091,353.389 90.400,352.043 90.400 C 351.890 90.400,350.963 91.140,349.982 92.044 M393.701 180.200 C 393.705 181.080,393.787 181.393,393.883 180.895 C 393.979 180.398,393.975 179.678,393.875 179.295 C 393.775 178.913,393.696 179.320,393.701 180.200 M394.093 186.000 C 394.093 186.770,394.175 187.085,394.276 186.700 C 394.376 186.315,394.376 185.685,394.276 185.300 C 394.175 184.915,394.093 185.230,394.093 186.000 M6.559 193.600 C 6.559 196.790,6.621 198.095,6.697 196.500 C 6.773 194.905,6.773 192.295,6.697 190.700 C 6.621 189.105,6.559 190.410,6.559 193.600 M394.093 200.800 C 394.093 201.570,394.175 201.885,394.276 201.500 C 394.376 201.115,394.376 200.485,394.276 200.100 C 394.175 199.715,394.093 200.030,394.093 200.800 M393.693 206.400 C 393.693 207.170,393.775 207.485,393.876 207.100 C 393.976 206.715,393.976 206.085,393.876 205.700 C 393.775 205.315,393.693 205.630,393.693 206.400 M193.100 387.489 C 193.815 387.578,194.985 387.578,195.700 387.489 C 196.415 387.401,195.830 387.328,194.400 387.328 C 192.970 387.328,192.385 387.401,193.100 387.489 M204.691 387.489 C 205.401 387.577,206.661 387.579,207.491 387.492 C 208.321 387.405,207.740 387.333,206.200 387.331 C 204.660 387.329,203.981 387.400,204.691 387.489 " stroke="none" fill="#67c52e" fill-rule="evenodd"></path><path id="path5" d="M180.200 0.421 C 178.000 0.588,175.525 0.778,174.700 0.844 C 173.875 0.910,173.200 1.107,173.200 1.282 C 173.200 1.457,172.311 1.600,171.224 1.600 C 170.137 1.600,169.144 1.767,169.018 1.970 C 168.892 2.174,167.172 2.467,165.195 2.622 C 163.218 2.777,161.600 3.035,161.600 3.196 C 161.600 3.433,159.121 3.869,156.500 4.091 C 156.225 4.114,156.000 4.283,156.000 4.467 C 156.000 4.650,155.381 4.800,154.624 4.800 C 153.867 4.800,153.144 4.967,153.017 5.172 C 152.891 5.377,151.800 5.667,150.594 5.818 C 149.387 5.969,148.400 6.238,148.400 6.417 C 148.400 6.596,147.412 6.866,146.205 7.017 C 144.997 7.168,144.094 7.428,144.197 7.595 C 144.300 7.762,143.496 8.017,142.409 8.161 C 141.322 8.305,140.325 8.598,140.193 8.812 C 140.061 9.025,139.513 9.200,138.976 9.200 C 138.439 9.200,138.000 9.360,138.000 9.555 C 138.000 9.751,137.378 10.028,136.617 10.170 C 135.856 10.313,134.731 10.692,134.117 11.012 C 133.503 11.333,132.595 11.596,132.100 11.598 C 131.605 11.599,131.200 11.780,131.200 12.000 C 131.200 12.220,130.951 12.400,130.646 12.400 C 130.341 12.400,129.576 12.669,128.946 12.998 C 128.316 13.326,127.384 13.596,126.876 13.598 C 126.368 13.599,126.050 13.758,126.170 13.951 C 126.289 14.145,125.875 14.405,125.249 14.530 C 123.875 14.805,119.454 16.841,119.266 17.285 C 119.193 17.459,118.431 17.713,117.574 17.851 C 116.716 17.988,116.112 18.257,116.231 18.450 C 116.350 18.642,116.089 18.800,115.652 18.800 C 115.215 18.800,114.587 19.070,114.257 19.400 C 113.927 19.730,113.374 20.000,113.029 20.000 C 112.683 20.000,112.400 20.177,112.400 20.392 C 112.400 20.608,111.950 20.898,111.400 21.036 C 110.850 21.174,110.400 21.447,110.400 21.643 C 110.400 21.840,110.113 22.000,109.762 22.000 C 109.145 22.000,106.808 23.144,106.400 23.646 C 106.290 23.781,105.795 24.019,105.300 24.173 C 104.805 24.328,104.400 24.607,104.400 24.795 C 104.400 24.983,103.860 25.255,103.200 25.400 C 102.540 25.545,102.000 25.810,102.000 25.988 C 102.000 26.167,101.550 26.426,101.000 26.564 C 100.450 26.702,100.000 26.992,100.000 27.208 C 100.000 27.423,99.730 27.600,99.400 27.600 C 99.070 27.600,98.800 27.739,98.800 27.909 C 98.800 28.079,98.125 28.567,97.300 28.994 C 96.475 29.421,95.144 30.272,94.342 30.885 C 93.541 31.498,92.686 32.000,92.442 32.000 C 92.199 32.000,92.000 32.139,92.000 32.309 C 92.000 32.479,91.370 32.957,90.600 33.372 C 89.830 33.787,89.200 34.278,89.200 34.463 C 89.200 34.648,89.025 34.800,88.812 34.800 C 88.474 34.800,82.611 39.025,81.342 40.182 C 81.090 40.412,80.300 41.050,79.587 41.600 C 78.875 42.150,77.648 43.140,76.861 43.800 C 76.075 44.460,75.154 45.224,74.815 45.497 C 71.330 48.310,60.462 58.898,56.390 63.447 C 53.092 67.133,50.643 70.041,50.234 70.758 C 50.033 71.111,49.758 71.490,49.624 71.600 C 49.489 71.710,48.757 72.610,47.995 73.600 C 47.234 74.590,46.429 75.605,46.206 75.856 C 45.983 76.106,45.440 76.815,45.000 77.430 C 44.560 78.045,43.795 79.036,43.300 79.632 C 42.805 80.228,42.400 80.900,42.400 81.124 C 42.400 81.349,42.262 81.593,42.094 81.667 C 41.926 81.740,40.670 83.510,39.304 85.600 C 37.938 87.690,36.636 89.617,36.410 89.883 C 36.185 90.149,36.000 90.466,36.000 90.587 C 36.000 90.709,35.010 92.409,33.800 94.365 C 32.590 96.321,31.600 98.104,31.600 98.328 C 31.600 98.551,31.446 98.793,31.259 98.867 C 31.071 98.940,29.072 102.780,26.817 107.400 C 22.307 116.642,22.558 116.091,20.780 120.600 C 20.086 122.360,19.266 124.367,18.959 125.060 C 18.651 125.754,18.400 126.521,18.400 126.766 C 18.400 127.011,18.232 127.523,18.026 127.905 C 17.668 128.570,16.452 132.148,15.020 136.749 C 5.866 166.171,4.237 203.179,10.766 233.400 C 12.010 239.155,12.544 241.269,14.169 246.876 C 35.520 320.535,96.959 374.297,172.400 385.334 C 182.356 386.791,185.920 387.000,200.800 387.000 C 215.671 387.000,217.189 386.909,228.200 385.350 C 291.159 376.438,345.950 336.526,374.199 279.000 C 381.417 264.301,385.650 252.344,389.566 235.600 C 390.371 232.155,391.967 222.745,392.754 216.800 C 394.503 203.590,394.525 182.562,392.804 170.400 C 390.414 153.516,387.665 141.590,383.400 129.600 C 382.891 128.170,382.158 126.100,381.771 125.000 C 381.384 123.900,380.918 122.829,380.734 122.620 C 380.550 122.411,380.400 121.994,380.400 121.694 C 380.400 121.394,379.974 120.215,379.453 119.074 C 378.933 117.933,378.110 116.100,377.624 115.000 C 375.912 111.119,375.472 110.171,374.000 107.200 C 371.301 101.751,368.610 96.826,366.888 94.185 C 366.607 93.753,366.271 93.085,366.142 92.700 C 366.012 92.315,365.767 92.000,365.597 92.000 C 365.426 92.000,365.174 91.550,365.036 91.000 C 364.898 90.450,364.608 90.000,364.392 90.000 C 364.177 90.000,364.000 89.837,364.000 89.637 C 364.000 89.438,363.062 87.886,361.916 86.190 L 359.831 83.104 360.816 82.326 C 361.789 81.557,364.556 78.943,365.474 77.926 C 365.735 77.637,367.070 76.410,368.441 75.200 C 377.202 67.464,384.400 59.740,384.400 58.072 C 384.400 56.357,383.005 54.400,381.782 54.400 C 381.462 54.400,381.200 54.220,381.200 54.000 C 381.200 53.741,376.067 53.600,366.600 53.600 L 352.000 53.600 352.000 38.782 L 352.000 23.964 351.018 22.982 C 350.478 22.442,349.758 22.000,349.418 22.000 C 349.078 22.000,348.800 21.820,348.800 21.600 C 348.800 21.080,347.322 21.080,347.000 21.600 C 346.864 21.820,346.416 22.000,346.005 22.000 C 345.594 22.000,345.019 22.264,344.729 22.586 C 344.438 22.908,343.992 23.403,343.737 23.686 C 343.483 23.969,342.238 25.100,340.971 26.200 C 339.705 27.300,337.066 29.775,335.108 31.700 C 333.149 33.625,331.422 35.200,331.271 35.200 C 331.119 35.200,329.249 36.910,327.114 39.000 C 322.704 43.318,322.960 43.208,321.154 41.577 C 320.409 40.904,319.350 40.052,318.800 39.684 C 318.250 39.315,317.563 38.693,317.273 38.300 C 316.983 37.908,316.578 37.690,316.373 37.817 C 316.168 37.944,316.000 37.895,316.000 37.710 C 316.000 37.524,315.415 37.033,314.700 36.618 C 313.985 36.202,313.256 35.623,313.080 35.331 C 312.904 35.039,312.570 34.800,312.338 34.800 C 312.106 34.800,311.411 34.395,310.794 33.900 C 308.446 32.017,307.823 31.600,307.352 31.600 C 307.085 31.600,306.807 31.458,306.733 31.284 C 306.591 30.946,302.900 28.400,302.553 28.400 C 302.440 28.400,301.774 27.995,301.073 27.499 C 299.109 26.109,298.262 25.597,297.500 25.342 C 297.115 25.212,296.800 24.962,296.800 24.785 C 296.800 24.608,296.260 24.345,295.600 24.200 C 294.940 24.055,294.400 23.771,294.400 23.568 C 294.400 23.366,294.040 23.200,293.600 23.200 C 293.160 23.200,292.800 23.062,292.800 22.894 C 292.800 22.726,291.855 22.148,290.700 21.608 C 289.545 21.069,288.510 20.529,288.400 20.410 C 288.290 20.290,287.210 19.726,286.000 19.157 C 284.790 18.587,282.619 17.554,281.176 16.861 C 279.733 16.167,278.338 15.600,278.076 15.600 C 277.814 15.600,277.600 15.420,277.600 15.200 C 277.600 14.980,277.190 14.800,276.689 14.800 C 276.188 14.800,275.414 14.545,274.969 14.233 C 274.523 13.921,273.493 13.541,272.680 13.389 C 271.866 13.236,271.200 12.980,271.200 12.820 C 271.200 12.661,270.165 12.186,268.900 11.767 C 267.635 11.347,266.510 10.885,266.400 10.741 C 266.290 10.597,265.345 10.350,264.300 10.194 C 263.255 10.037,262.400 9.777,262.400 9.615 C 262.400 9.261,258.617 8.000,257.554 8.000 C 257.139 8.000,256.800 7.833,256.800 7.629 C 256.800 7.425,255.810 7.134,254.600 6.983 C 253.390 6.832,252.400 6.557,252.400 6.374 C 252.400 6.190,251.324 5.918,250.008 5.769 C 248.692 5.620,247.713 5.341,247.831 5.149 C 247.950 4.957,247.317 4.800,246.424 4.800 C 245.531 4.800,244.800 4.620,244.800 4.400 C 244.800 4.180,244.665 4.031,244.500 4.069 C 243.896 4.209,239.388 3.492,239.000 3.195 C 238.780 3.026,237.115 2.760,235.300 2.603 C 233.485 2.445,232.000 2.155,232.000 1.958 C 232.000 1.761,231.010 1.600,229.800 1.600 C 228.590 1.600,227.600 1.450,227.600 1.267 C 227.600 1.083,227.375 0.925,227.100 0.915 C 226.825 0.906,223.841 0.696,220.468 0.449 C 213.751 -0.043,186.577 -0.061,180.200 0.421 M196.800 55.141 L 196.800 100.682 191.900 101.179 C 162.935 104.121,138.500 118.773,122.666 142.694 C 113.973 155.826,109.669 168.678,107.695 187.400 L 107.400 190.200 61.743 190.302 C 25.424 190.383,16.050 190.301,15.909 189.902 C 14.706 186.517,18.373 159.385,21.680 147.200 C 22.127 145.550,22.624 143.660,22.783 143.000 C 23.433 140.305,27.751 128.026,29.649 123.474 C 52.817 67.929,101.585 26.871,159.600 14.069 C 171.145 11.521,183.516 9.944,194.100 9.670 L 196.800 9.600 196.800 55.141 M220.000 10.446 C 256.292 14.906,288.928 28.399,314.952 49.704 L 316.103 50.647 315.152 51.626 C 314.628 52.164,311.140 55.471,307.400 58.975 C 303.660 62.479,297.900 67.887,294.600 70.992 C 291.300 74.098,285.270 79.765,281.200 83.586 C 272.012 92.212,272.938 90.032,272.704 103.567 L 272.508 114.933 267.554 119.648 C 261.769 125.153,262.331 124.978,259.123 122.274 C 245.499 110.792,226.170 102.738,209.000 101.388 C 207.020 101.232,205.175 100.924,204.900 100.703 C 204.336 100.251,204.139 10.406,204.700 9.820 C 205.060 9.444,215.232 9.860,220.000 10.446 M348.095 41.900 L 348.200 57.800 364.143 58.000 L 380.085 58.200 371.943 65.997 C 367.464 70.286,362.090 75.417,360.000 77.399 C 357.910 79.382,352.510 84.522,348.000 88.822 C 343.490 93.123,333.950 102.202,326.800 108.997 C 319.650 115.793,312.514 122.579,310.943 124.077 L 308.085 126.800 296.022 126.800 L 283.960 126.800 278.280 132.088 C 272.837 137.156,270.347 139.496,262.810 146.625 C 260.934 148.399,255.350 153.615,250.400 158.216 C 241.777 166.231,239.195 168.650,231.610 175.825 C 229.734 177.599,224.150 182.817,219.200 187.420 C 214.250 192.023,209.331 196.602,208.269 197.595 C 201.562 203.866,193.231 199.244,196.591 191.115 C 196.747 190.738,201.942 185.706,208.137 179.933 C 214.332 174.159,220.750 168.160,222.400 166.601 C 226.279 162.935,231.124 158.393,234.400 155.350 C 235.830 154.022,238.611 151.420,240.580 149.568 C 242.549 147.716,245.609 144.837,247.380 143.172 C 249.151 141.506,253.570 137.378,257.200 133.998 C 260.830 130.619,266.545 125.255,269.900 122.079 L 276.000 116.304 276.000 104.603 L 276.000 92.902 277.396 91.709 C 278.164 91.053,281.539 87.926,284.896 84.759 C 288.253 81.592,292.710 77.391,294.800 75.423 C 296.890 73.455,300.040 70.478,301.800 68.808 C 305.124 65.653,307.706 63.231,317.801 53.800 C 321.098 50.720,325.596 46.493,327.798 44.407 C 329.999 42.321,333.145 39.351,334.790 37.807 C 336.434 36.263,339.224 33.638,340.990 31.974 C 346.220 27.043,347.384 26.007,347.695 26.003 C 347.858 26.002,348.038 33.155,348.095 41.900 M355.308 94.700 C 360.677 103.212,364.568 110.442,368.295 118.836 C 377.386 139.307,382.873 162.315,383.858 184.100 L 384.125 190.000 338.450 190.000 C 302.252 190.000,292.745 189.896,292.633 189.500 C 292.555 189.225,292.280 186.660,292.022 183.800 C 291.765 180.940,291.394 177.880,291.200 177.000 C 291.005 176.120,290.546 174.050,290.181 172.400 C 288.079 162.908,283.148 151.337,277.652 143.002 C 275.100 139.130,274.753 140.101,280.631 134.658 L 285.661 130.000 297.673 130.000 L 309.685 130.000 312.543 127.287 C 314.114 125.794,319.090 121.073,323.600 116.796 C 328.110 112.518,333.690 107.205,336.000 104.988 C 347.893 93.576,351.720 90.008,352.071 90.003 C 352.221 90.002,353.677 92.115,355.308 94.700 M205.236 159.629 C 210.391 160.285,218.127 162.988,219.029 164.447 C 219.197 164.719,218.592 165.589,217.557 166.563 C 216.591 167.472,211.750 171.982,206.800 176.584 C 194.198 188.301,193.759 188.768,193.022 191.250 C 190.678 199.142,197.629 205.941,205.600 203.553 C 207.476 202.991,208.629 201.999,221.579 189.800 C 234.371 177.750,232.890 178.457,234.563 183.600 C 245.988 218.728,202.793 245.171,176.266 219.290 C 152.840 196.433,172.723 155.486,205.236 159.629 M107.675 200.200 C 107.827 201.300,108.243 204.348,108.600 206.974 C 114.387 249.490,151.854 283.871,194.400 285.705 L 196.600 285.800 196.702 331.900 L 196.803 378.000 194.502 377.992 C 191.904 377.983,178.439 376.947,176.600 376.615 C 175.940 376.496,173.060 376.026,170.200 375.572 C 85.738 362.148,19.587 288.527,16.126 204.098 L 15.876 197.997 61.638 198.098 L 107.400 198.200 107.675 200.200 M384.144 198.309 C 384.429 198.770,383.693 209.865,382.984 215.800 C 375.590 277.654,337.655 331.107,281.208 359.209 C 266.206 366.678,249.184 372.239,232.400 375.155 C 224.151 376.588,211.110 378.000,206.118 378.000 L 204.797 378.000 204.898 331.900 L 205.000 285.800 206.400 285.701 C 251.346 282.521,287.380 247.563,291.997 202.660 C 292.220 200.493,292.502 198.558,292.625 198.360 C 292.898 197.918,383.871 197.868,384.144 198.309 " stroke="none" fill="#fbfbfb" fill-rule="evenodd"></path></g></svg>