<svg xmlns="http://www.w3.org/2000/svg" xmlns:xlink="http://www.w3.org/1999/xlink" viewBox="0 0 457.52 512"><defs><style>.cls-1,.cls-2,.cls-3,.cls-4,.cls-5,.cls-6{stroke-miterlimit:10;}.cls-1{fill:url(#linear-gradient);stroke:url(#linear-gradient-2);}.cls-2{fill:url(#linear-gradient-3);stroke:url(#linear-gradient-4);}.cls-3{fill:url(#linear-gradient-5);stroke:url(#linear-gradient-6);}.cls-4{fill:url(#linear-gradient-7);stroke:url(#linear-gradient-8);}.cls-5{fill:url(#linear-gradient-9);stroke:url(#linear-gradient-10);}.cls-6{fill:url(#linear-gradient-11);stroke:url(#linear-gradient-12);}.cls-7{fill:#fff;}.cls-8{fill:url(#linear-gradient-13);}.cls-9{fill:url(#linear-gradient-14);}.cls-10{fill:url(#linear-gradient-15);}</style><linearGradient id="linear-gradient" x1="282.44" y1="388.94" x2="433.25" y2="105.31" gradientUnits="userSpaceOnUse"><stop offset="0" stop-color="#0e7b7a"/><stop offset="1" stop-color="#34b4ab"/></linearGradient><linearGradient id="linear-gradient-2" x1="281.86" y1="389.07" x2="433.1" y2="104.62" xlink:href="#linear-gradient"/><linearGradient id="linear-gradient-3" x1="411.43" y1="229.9" x2="178.5" y2="0.99" xlink:href="#linear-gradient"/><linearGradient id="linear-gradient-4" x1="411.84" y1="230.12" x2="177.96" y2="0.28" xlink:href="#linear-gradient"/><linearGradient id="linear-gradient-5" x1="318.59" y1="140.45" x2="-2.6" y2="152.79" xlink:href="#linear-gradient"/><linearGradient id="linear-gradient-6" x1="319" y1="140.89" x2="-3.16" y2="153.26" xlink:href="#linear-gradient"/><linearGradient id="linear-gradient-7" x1="167.61" y1="119.92" x2="24.72" y2="409.04" xlink:href="#linear-gradient"/><linearGradient id="linear-gradient-8" x1="168.19" y1="119.79" x2="24.88" y2="409.77" xlink:href="#linear-gradient"/><linearGradient id="linear-gradient-9" x1="49.26" y1="275.35" x2="273.81" y2="512.8" xlink:href="#linear-gradient"/><linearGradient id="linear-gradient-10" x1="49.2" y1="274.8" x2="274.62" y2="513.17" xlink:href="#linear-gradient"/><linearGradient id="linear-gradient-11" x1="142.23" y1="390.22" x2="467.12" y2="353.2" xlink:href="#linear-gradient"/><linearGradient id="linear-gradient-12" x1="141.77" y1="389.83" x2="467.73" y2="352.69" xlink:href="#linear-gradient"/><linearGradient id="linear-gradient-13" x1="137.8" y1="236.72" x2="309.02" y2="236.72" xlink:href="#linear-gradient"/><linearGradient id="linear-gradient-14" x1="168.81" y1="189.45" x2="266.76" y2="189.45" xlink:href="#linear-gradient"/><linearGradient id="linear-gradient-15" x1="131.79" y1="288.82" x2="325.72" y2="288.82" xlink:href="#linear-gradient"/></defs><title>Asset 11</title><g id="Layer_2" data-name="Layer 2"><g id="Layer_1-2" data-name="Layer 1"><path class="cls-1" d="M457,145.82V262.6a330.44,330.44,0,0,1-60,59.66,326.18,326.18,0,0,1-78.51,44.36c-1.57.62-3.16,1.23-4.72,1.82-.74.28-1.48.56-2.22.83-1.69.62-3.4,1.23-5.11,1.83l-.07,0c-1.83.65-3.67,1.27-5.52,1.87q-4.28,1.43-8.62,2.7c-1.15.35-2.31.71-3.47,1-.55.18-1.09.32-1.64.48-1.78.49-3.56,1-5.34,1.46l-.23.05c-1.83.48-3.67,1-5.52,1.39-.42.11-.85.21-1.29.3-1.75.44-3.49.85-5.25,1.22-.18.05-.35.09-.53.12a131.23,131.23,0,0,0,82.32-76.52c.23-.56.44-1.15.67-1.71l.65-1.71q3.07-8.07,5.69-16.27c.88-2.75,1.73-5.48,2.54-8.25a330.56,330.56,0,0,0,9.38-41.87,327.21,327.21,0,0,0,.92-94.25,331.21,331.21,0,0,0-21.49-80.34l8.92,5.06c38.29,21.74,71.95,40.87,71.95,40.87.23.12,2.5,1.36,3.35,1.83l.32.16a43.6,43.6,0,0,1,21.46,27.42c.05.19.11.41.16.62.12.48.23,1,.32,1.45s.18.79.25,1.2.14.81.21,1.22.07.6.11.88.07.48.09.72.09.63.12,1c.07.88.12,1.75.14,2.63C457,145.8,456.95,145.8,457,145.82Z"/><path class="cls-2" d="M369.25,235.26c-.28,1.85-.6,3.7-.92,5.55-.26,1.59-.56,3.17-.86,4.76-.14.76-.28,1.53-.44,2.31-.11.56-.23,1.13-.34,1.69-.26,1.27-.51,2.54-.79,3.79-.09.46-.19.92-.3,1.36-.32,1.46-.63,2.93-1,4.39q-.18.87-.42,1.75c-.37,1.57-.76,3.16-1.15,4.72-.16.56-.3,1.15-.46,1.73-.44,1.73-.92,3.46-1.39,5.2,0,.12-.07.26-.11.41q-.79,2.83-1.64,5.66a.33.33,0,0,0,0,.12c-.6,2-1.23,4-1.87,6a132.16,132.16,0,0,0-22.8-107.37l-.19-.23c-1.08-1.46-2.2-2.91-3.31-4.28a3.1,3.1,0,0,0-.23-.26,330.31,330.31,0,0,0-49.26-50.25A326.92,326.92,0,0,0,202.3,74.12q-5.16-2.2-10.4-4.21A330.49,330.49,0,0,0,128,52.38L206.16,8.8a6.79,6.79,0,0,1,1-.53l2.52-1.5a46.85,46.85,0,0,1,4.85-2.52A42.14,42.14,0,0,1,236,.71c.28,0,.76.05,1.22.12A46.35,46.35,0,0,1,249.6,4.25c1,.44,39.35,22.14,80.46,45.49,6.06,3.44,12.2,6.91,18.26,10.37a330.32,330.32,0,0,1,21.86,81.17A326,326,0,0,1,369.25,235.26Z"/><path class="cls-3" d="M319.34,160A132.24,132.24,0,0,0,211.85,125.1l-.33.05-.14,0c-1.94.25-3.9.56-5.84.92l-.26.05-.11,0a330.52,330.52,0,0,0-66.41,18.42A326.62,326.62,0,0,0,60,189q-3.54,2.7-7,5.5c-.92.72-1.82,1.46-2.72,2.22-.44.35-.88.71-1.3,1.08-.72.6-1.45,1.2-2.15,1.82Q39.77,205.72,33,212.18c-.83.78-1.64,1.57-2.45,2.36s-1.46,1.43-2.19,2.15c-1.09,1.09-2.19,2.19-3.28,3.3l-3.23,3.33c-.19.21-.39.42-.58.62-.86.92-1.71,1.82-2.56,2.73-.46.48-.9,1-1.34,1.45q-3,3.28-5.94,6.66c-1,1.15-2,2.31-3,3.47s-1.87,2.22-2.79,3.35c-.81,1-1.62,2-2.42,3S1.77,246.42,1,247.35c0-1.68,0-3.35,0-5,.23-48.5.44-92.91.44-93.1v-.37A43.22,43.22,0,0,1,15,117c.16-.14.32-.3.48-.46.35-.32.72-.63,1.09-1s.62-.55.93-.81.65-.51,1-.76.48-.35.72-.51l.58-.44c.25-.19.51-.37.78-.56.72-.48,1.46-1,2.2-1.39a0,0,0,0,0,0,0l83-46.26,18.92-10.56,2-1.13A330,330,0,0,1,201.89,75a325.39,325.39,0,0,1,79.21,48s.05.05.11.09A326.5,326.5,0,0,1,319.34,160Z"/><path class="cls-4" d="M87.38,276.62a327.08,327.08,0,0,0-.93,94.23c.46,3.42,1,6.84,1.55,10.24.26,1.55.55,3.1.83,4.65,0,.18.05.35.09.55.3,1.57.6,3.14.92,4.71s.69,3.35,1,5,.74,3.33,1.13,5q1.14,5,2.47,9.94c.44,1.64.88,3.28,1.34,4.92a.07.07,0,0,1,0,.05c.44,1.55.88,3.1,1.36,4.64q3.7,12.48,8.39,24.63c.49,1.32,1,2.64,1.53,3.95.11.25.19.51.3.76l-5.92-3.37L26.86,404.17l-3.31-1.82-.33-.18A43.39,43.39,0,0,1,1.87,374.92c-.05-.19-.11-.41-.16-.62-.11-.48-.21-.93-.32-1.43s-.16-.79-.25-1.2S1,370.87,1,370.46l-.11-.88-.11-.71c0-.32-.07-.63-.11-1C.57,367,.52,366.2.5,365.32v0s.21-46.88.44-97c0-6.47.07-13,.09-19.53q1.61-2.06,3.28-4.13c1-1.25,2-2.49,3.07-3.74.18-.23.37-.48.58-.71,1-1.22,2-2.43,3.09-3.63s2.29-2.66,3.46-4q3.76-4.23,7.63-8.3c1-1.09,2.08-2.17,3.12-3.24q7.35-7.54,15.16-14.56c1.29-1.18,2.61-2.33,3.93-3.49s2.64-2.27,4-3.4,2.47-2.06,3.7-3.07q4.2-3.49,8.55-6.79a325.62,325.62,0,0,1,78.53-44.36c1.57-.62,3.14-1.22,4.72-1.82.74-.28,1.48-.56,2.22-.83,1.69-.62,3.4-1.23,5.11-1.83l.07,0c.93-.33,1.89-.65,2.82-1s1.8-.6,2.7-.9L157,139c.71-.25,1.41-.48,2.13-.69.25-.09.49-.16.74-.23s.72-.25,1.09-.35c.81-.26,1.64-.53,2.49-.78s1.66-.51,2.5-.76c1.53-.46,3.07-.92,4.62-1.34.42-.12.85-.25,1.29-.35,1.32-.37,2.66-.74,4-1.09s2.79-.72,4.18-1.06,2.79-.69,4.2-1,2.79-.65,4.2-1l.19,0a131.15,131.15,0,0,0-82.26,76.52c-.23.56-.46,1.13-.67,1.69s-.44,1.15-.65,1.71A332.3,332.3,0,0,0,87.38,276.62Z"/><path class="cls-5" d="M330,459.71l-79.76,45.5a45.87,45.87,0,0,1-4.9,2.52,42.66,42.66,0,0,1-21.65,3.56c-.28,0-.78-.05-1.23-.12h0a46.19,46.19,0,0,1-12.45-3.44h0a63.75,63.75,0,0,1-8-4.14l-75.9-43.09-17.44-9.91h0c-1.08-2.68-2.13-5.38-3.14-8.07-.51-1.38-1-2.73-1.52-4.11s-.9-2.5-1.34-3.77-.81-2.34-1.2-3.53c-.34-1-.65-2-1-2.94-.69-2.12-1.36-4.23-2-6.36q-2.75-9.07-5-18.28c-.23-.93-.46-1.87-.67-2.8-.67-2.82-1.29-5.68-1.87-8.52-.21-1-.41-2.08-.62-3.12L90,387.14c-.21-1.16-.42-2.33-.63-3.51-.25-1.43-.49-2.86-.72-4.28s-.46-2.87-.67-4.3-.42-2.87-.62-4.3a325.5,325.5,0,0,1,.92-94c.32-2,.65-4,1-6a3.51,3.51,0,0,1,.07-.42s0-.07,0-.11c.62-3.44,1.27-6.86,2-10.28l.53-2.5c0-.18.07-.33.12-.51.35-1.67.74-3.35,1.15-5,.44-1.9.92-3.81,1.41-5.71a10,10,0,0,1,.26-1c.44-1.73.9-3.46,1.39-5.18.07-.3.14-.58.23-.86.39-1.37.78-2.75,1.18-4.13.11-.37.21-.76.33-1.15s.18-.58.26-.88c.51-1.73,1.06-3.47,1.6-5.2l.11-.3a131.64,131.64,0,0,0,22.85,107.19l.19.23c1.06,1.45,2.19,2.89,3.31,4.28a2.4,2.4,0,0,0,.19.25c1.83,2.31,3.68,4.6,5.59,6.88s3.79,4.48,5.73,6.68a0,0,0,0,0,0,0q7.27,8.25,15.11,16,9.39,9.34,19.46,17.84c1.13,1,2.26,1.89,3.39,2.82a325.82,325.82,0,0,0,79.46,48.22c1.27.55,2.54,1.09,3.83,1.6s2.57,1,3.86,1.55c.9.37,1.8.72,2.7,1.08l1.16.44c1.29.49,2.59,1,3.9,1.45,2.54.93,5.08,1.83,7.63,2.7,1.29.44,2.57.86,3.88,1.29l.85.28,3.42,1.08c.25.09.51.18.78.25,2.4.74,4.81,1.46,7.23,2.13l.09,0c2.64.74,5.31,1.45,8,2.13s5.41,1.36,8.13,2c1.36.32,2.71.62,4.07.92s2.73.58,4.09.85,2.47.49,3.7.72c1.5.3,3,.58,4.51.85C328,459.37,329,459.55,330,459.71Z"/><path class="cls-6" d="M456.86,366.14a42.38,42.38,0,0,1-7.39,20.52c-.16.25-.42.65-.71,1h0a45.87,45.87,0,0,1-9,9.15v0c-.76.56-43.3,24.91-87.89,50.37-6.4,3.67-12.85,7.35-19.23,11-.49.28-1,.56-1.46.83h0c-1.62-.26-3.23-.55-4.85-.85s-3.24-.6-4.85-.92-3.24-.63-4.85-1-3.23-.69-4.83-1.06q-4.55-1-9.06-2.19-5.1-1.3-10.19-2.79-2.3-.66-4.6-1.38t-4.71-1.48l-.46-.14c-2.63-.86-5.25-1.75-7.86-2.66l-1.48-.53-4.14-1.52c-3.07-1.13-6.12-2.33-9.15-3.56-1.52-.62-3-1.25-4.53-1.89A326.08,326.08,0,0,1,176.31,389c-1.73-1.41-3.44-2.86-5.13-4.32-1.27-1.08-2.52-2.17-3.77-3.28l-.18-.16c-.83-.74-1.66-1.48-2.49-2.24q-1.59-1.4-3.12-2.86c-.25-.21-.49-.44-.72-.65a2,2,0,0,1-.19-.19c-1.36-1.25-2.72-2.54-4-3.83l-.37-.37c-1.15-1.09-2.26-2.2-3.37-3.31-.83-.81-1.64-1.64-2.45-2.47-1.23-1.25-2.45-2.5-3.65-3.77s-2.66-2.82-3.95-4.25c-.83-.9-1.66-1.8-2.47-2.72s-1.73-1.92-2.57-2.89A132.22,132.22,0,0,0,245.67,386.9a2,2,0,0,0,.3,0l.16,0c2-.25,3.93-.56,5.85-.92l.25,0,.11,0a331.06,331.06,0,0,0,66.41-18.42A326.94,326.94,0,0,0,397.46,323,331.48,331.48,0,0,0,457,264v92.58a8.18,8.18,0,0,1-.05,1.15l.09,2.93A51.19,51.19,0,0,1,456.86,366.14Z"/><circle class="cls-7" cx="228.76" cy="256" r="132.23"/><path class="cls-8" d="M309,201.58A97.49,97.49,0,0,0,289,180l-72.12,66.11a12.39,12.39,0,0,1-17.14-.37L151.44,197.5a96.75,96.75,0,0,0-13.64,24.85l71.05,71.05Z"/><path class="cls-9" d="M208.85,219.86l57.91-53.08a96.64,96.64,0,0,0-38-7.74h0a96.52,96.52,0,0,0-59.95,20.78Z"/><path class="cls-10" d="M216.85,319.69a12.39,12.39,0,0,1-17.14-.37L131.9,251.5c-.07,1.49-.11,3-.11,4.5h0a97,97,0,0,0,97,97h0a97,97,0,0,0,97-97h0a96.78,96.78,0,0,0-5.21-31.34Z"/></g></g></svg>